/* XPM */
static char *result[] = {
/* columns rows colors chars-per-pixel */
"64 64 94 2 ",
"   c #050402",
".  c #0A0601",
"X  c #0D0903",
"o  c #0C0C0A",
"O  c #140C01",
"+  c #190F00",
"@  c #1C1101",
"#  c #11110E",
"$  c #1D160B",
"%  c #151412",
"&  c #191712",
"*  c #1B1914",
"=  c #1C1C18",
"-  c #241500",
";  c #281700",
":  c #251804",
">  c #2B1A01",
",  c #231909",
"<  c #321D00",
"1  c #221C11",
"2  c #201F1B",
"3  c #352002",
"4  c #3B2401",
"5  c #332208",
"6  c #2D2311",
"7  c #23221D",
"8  c #312716",
"9  c #312A1C",
"0  c #2C2B25",
"q  c #2E2E29",
"w  c #343127",
"e  c #32322C",
"r  c #3C392D",
"t  c #3B3B34",
"y  c #422700",
"u  c #462900",
"i  c #4B2D00",
"p  c #502F00",
"a  c #4F3000",
"s  c #543200",
"d  c #5A3600",
"f  c #5E3800",
"g  c #643C00",
"h  c #693E00",
"j  c #423A28",
"k  c #6D4100",
"l  c #734500",
"z  c #784700",
"x  c #774800",
"c  c #7B4900",
"v  c #424139",
"b  c #49483F",
"n  c #4D4C42",
"m  c #534F43",
"M  c #535146",
"N  c #545449",
"B  c #59594E",
"V  c #5E5E52",
"C  c #666557",
"Z  c #656559",
"A  c #6A695C",
"S  c #6D6D60",
"D  c #737264",
"F  c #767668",
"G  c #7A7A6B",
"H  c #814D00",
"J  c #848474",
"K  c #888777",
"L  c #91917F",
"P  c #939381",
"I  c #9B9B87",
"U  c #9E9D8A",
"Y  c #A1A18D",
"T  c #A5A591",
"R  c #A8A793",
"E  c #ABAB96",
"W  c #AEAE99",
"Q  c #B3B29D",
"!  c #B7B6A0",
"~  c #B8B7A1",
"^  c #BBBBA4",
"/  c #C4C3AB",
"(  c #C8C7AF",
")  c #CCCBB3",
"_  c #D1D0B7",
"`  c #D5D4BA",
"'  c #D8D7BD",
"]  c #DAD9BE",
"[  c #DEDDC2",
"{  c #E0DFC4",
"}  c #E3E2C6",
"|  c #E6E5C9",
" . c #E8E7CB",
".. c #E9E8CC",
/* pixels */
"c H c H c c c l l l l l c l l z l d z z l k c c c c c c c c z x c c z l x k k g k l k g c c c c H c d u l c l z c c c l z l h z ",
"H H H H H H c c k l g c c l l l c c c x l x l k c c x c z c z c c c c c c g g f k k g g c c x x H c k k x c c c f z H c c l l l ",
"H c c H c c l l k l l z l l c H H H H z x g g z x x k l c x z z c c c l c h f d k l g g l c c c c l x k l c x c l c c c c k l g ",
"c c c c l c l k k k l z l l c c c l z z z c c l z f y i k l z c c l g s g l h g l l x k g x x l c l x x c l l c c c c H c l g u ",
"s c x k k k f k k k h k c z c h z k z x z z c h x s u u l z l l l k i u i z c z l z z g s g l l l l l c c c l x c H H H H c l d ",
"g x l k k l k k l k g h l c l l h h h x z z c c c k d f l d l k g d i u i c l c c c z g p p g d g g h z c l l c f H H c H c c z ",
"l c l k x c l k l l k k z c c l h h g z c c H H c z l l l k l g g g g d k f g k l c z z s u d i f g l l l l h k k H H H l l c H ",
"k k g l x x l l k l l l l c c l k g i l c H H c c c z z g l g i g k c z k i u s l z c z z d p d g k z c c c l l k l c H H l z H ",
"k k g l l f x k g l x l x c c l g g k c c c H k l z x z k z x k z z c x g u u s g g x x z d i h g k l f d l c c c l c c c l c c ",
"h k g k k g l k k k l c c x l g s d l c H c c k c z l c z x z x l l l l l k g k u s k l z d g l l l l s u f c c l k l l c c H c ",
"g g g h h k l g u g c c c c c d u s l z l z c k c l g c x f g x k k g k z c c l s s i i d i s k h k k g s h c c l f l l l c c k ",
"s k l k g h k u u i c c c l x l f k c g s c c H c g k x g y u k l l l z z c x l d u u i g h g l k h g k l l l c z c l h l l k x ",
"z l l k k k k s u d c c k c l l z z c H H k z c H c c c k u i k z k l g l l l k g u y s h h h h k h k l l l k k h g l l l l l c ",
"c l l l k l g d g g z c c l c l k l c c H k g c H H c c c x l l c k k f z l k k k f g h h s g l k k k k l l h u g k c l k h l l ",
"l l f h k s s k x c c c c z k l g s c H c c z z H H H H c H c c x l l k x l k k k k h k h d h g g h g k l z l g l l x l k l l l ",
"l l k h s u u u l c c c c z h k h g c c c c l z H H H H c H H c k k l c c l l l h > O y g d z k k h g h l l l k g l l l k h l k ",
"z l l k u u u s l c c l g x k g k x H c c H c H H H H H c c H k l l l c z l l h , j D % y h H l z z c z h l h g d g h f g i f l ",
"l k l k d u i k c H H z k l k k g l l c H c c c H c H c l c H l f l c c h h l p e ` ../ 9 l H c l c c l l l f k u s g h s u i h ",
"l h l l l h k h l c c c k z g g k k l x l l k l c H H c l c c c l z c c l l z < W | | | P 4 l c l c c h k l h f u d g g u s h f ",
"l k k k l l g k f k c z c c l k k k k s d c c c c c c l l c c c c k g h l z c j | | | | _ 6 c z l c k s d l g k h h h l g h l h ",
"c l l l k k k l h d g h l z h g k l k s d z c c k k z c k z l c z g g h c H h C  .| | | { r z z l g l k k l h l z h h l h h l z ",
"l l l k k k l l l d g l l k h l l l k h l c z l g k f z k h l l l h d l c H y P | | | | { j z z l k c l l l l l z l g l h h h z ",
"g l l h k k l k l l l h l z l l l l k l l l k z h c z H H z H z l l l l z z , ! | | | | ' 8 z l g h l l k g l k k l k h h h g g ",
"l l l l l h l l l l l l g d g l l l z z l l k c l k c c H c H H l l z z H h & _ | | | | ! ; z l l c l l l h h s g h h h h h l l ",
"l l l l l l l z c c c h g y p l l l l c l l l l l k l c H c H c z l l l l f v } | | | | G i c l l c c l l l g k k h g f g h g l ",
"k l l l l k c l c c c l l g h l f u l l l l c c l l k k c H H c c c x l g : I  .| | | ..n g z c H c c x c k l z l l f s g h f l ",
"d l z l k g z l z h c l H H c z k s h l l l l l c c d d l c H c c l g > . t [  .| | | ..j u z z l c c c x l l l z l h g l l l l ",
"g k l l k k l g l g g l H H c H k d g z z z l l c l i u g c H k p ; O e K ` }  .| | | | P & h l l c l c c s s l k k l k z c l l ",
"g l g k l h s p h g h l z H c c f u h c c z l l l k f d h k u O o e U }  . .| | | | | | / M d c l c z l k u g l i g l g l c z c ",
"h l h l c s u u i s s h l l z l l z l h k l k k l k h p - X = D ^ [  .}  .} | | | | | | | ! < h g k l h g s c x g k g h h l z z ",
"l l c c z s u u d d < y f l h h c c l l k k k h s 3 O # j P [ |  . . . .{ _ ) [ | | | | | [ w g h h k h l l l h k k g d s h l h ",
"k l c l k l g h g . * o   d u h k l l l h d 4 X   % F _ ....| |  .} } ( W R R Q ) { | | | | G u l l h l l k l x l l g g f g h g ",
"l x c c k l l l 4 C ' ( D $ s k f k s 4 @ X 7 Z T ` }  . . .}  .' / Q E E E R E E Q ( _ ) ^ J 4 k k f k l k k x l k g g k g f s ",
"l l c c c c c h 8 ' | | | J # i > O o = M T {  . .}  . . .} ] / W R R U G v n T E E E E E W J 3 k k f k x k k l k k g k g g k g ",
"g g c c l c l g m ..| | | } P o e D Q ` }  . .|  .}  .} _ ~ W R R K v %   @ O M E E W W W E Z 4 f k k k x k k f k g g g f g g k ",
"g g f g l h k g A | | | | | } ) [  .| | | | }  . .{ ) ~ W R P Z q X O > f x f + N T E R E T q s k k k f c l k d g k k k g f g g ",
"i g s u h f h g A | | | } | | | }  . .}  .} | } ) W R E P v     : s c x c c k f   n T W R Z @ k k k l k x l k k g k k g h a u f ",
"s f g d k l k g N ..| |  .} | |  .}  . .} [ / Q E T D e o + u f l x c c c c c c s O = t q X d g d k k k k l k k g g g g k s s i ",
"d g g l h g h f j | | |  . . . . .} } ] / W E U S 2   @ i l l l l x x c x k k l h f > O @ s l s y f l x c x l k d g g d k g g d ",
"d s g g g l h l 4 Q | | }  .} }  .] ^ E E Y V %   > s l l l l l l c x l k k k f u k g k k k k g s k k k l d k l h g s u i g k g ",
"u a d g f g h z f N } | | |  .} / E E P B * X < u f l z x l k k g k c c k k k h d s u d g g l k k h g k l l x l k k s y u p l k ",
"f s d d d g l c l $ ) | | | } ~ R Y B o . 4 g k g k l c c k h g u u f g k g k k g u u u s u f g g g h g k l d k g g g u u d l h ",
"g g g g d h l z h 1 T  .| | ` W Z % X y h l k l k k x c l l h f u u s l k k k k h s u d s u u s g g d k k l a l k h l f f g g i ",
"f h l d g g z c g r Q  .| | / R 0 - i l z z l l l g h k f f l g s i g f l l l h g c l k f u u h k g g h h h z l l h h h h g f u ",
"h h l g l z h c g n ) }  .} Q T 8 i u g g l z c k f l g u y f g g l h g l k k g g c k g k d g l g k k k g k c d k g k k g k h s ",
"u u g l l h k l g N  . . .` R P > g k g u g k c l g l k u u f g g k k g h g l l g k a u s k g g d h k l l z c g g l l l z l c l ",
"u u p s l k l d g N } } } / R Z > l l h s f l l g g k l k g h g k l g d d h l l c l u u i g f g g h g k l l c k h l l c H c c l ",
"s u g h l l l g s n }  .{ W R q s l k k k g h k f k l l l k k h k k d u i h z l c c g u f f f f g g g d k c z h z k l c c f g h ",
"i p h h l k c l d r { ` Q E L , g l g g p i g g g h l h k l k k l g g u d h c c c z k d f g h k k l d a k z z k l H c c l i s g ",
"s d g h g g c l g 1 R E E E b y f g g g p i h k h h l h h k h k k k l l k k l l c l l s s g h l g s u u g l z l h k c z l k g k ",
"f f d h f k h p g 5 G E W F O g l h h k k g h k k l l l k h k k l k l z l f k l k g k k h g k k k d u u k h l l l z c l l k l l ",
"s d f g g l k i g s 7 K G * u l l h h k k g g h l z l h l g g g h l z z z l k l k g k k k h l f k k k l c c c k l z c c k k k l ",
"g f g g f g h g f d >     4 l l f h h k h g g h h l z l k k f i d k z z x g g g l l k k k l l k d d l c c l l z x c l l l k k g ",
"d p f g f f d d f f f 4 i k c l l g u s k k l k g k z l l k f u d z l z c h k c k c l c c l l l h f c x l l g c l u f k l l k g ",
"g h g g d i i g k s g g k k x x h g i s k l l h h g k l l c l h l c l z c g f l c c c l d g h g f s g l l l l c x s u h l l l h ",
"s g g k f u i h l g g k d g g l l l g h h l l g h h h k l c x l l z c z l d d k l k l x u g k g g g k k l h k k k l f l l k h k ",
"d h h k h s d h k k l d u u g g g g g g h k k l k k d x H H c c c l l c l h s g c c c x l l l g g k k c c l k l l g s h g g g l ",
"l l h k l l k f f k l s u u g k d i s h l l k k k k g g c c H c H c l c l k h l c c H x k k k k k h l l l c l c c h g k g h g h ",
"h k l l l l l h f k l g i s g g u u s g d k l h l k k a g c c H z c c l l k k k x c H l k l k k l l k k k l z k g l h z f k h g ",
"h h l c c l k l k h k k k l k s y u h l l l l k x c c k l l x c c c H c c c x k k g l l l l k g f g l k g s f k g h k l l l l h ",
"k l l c z l k c k h k g g h l d u i g l l x l k l l c c c c c c c l c x c H l k l x c H c c k k a s l k i u u g g k k k c c c c ",
"h l l k l c c l g f g f h h l k k k k h h h k k k c H H c c l c c k x c c c l l c x x c c c c l c c c k s y u g k k k k g k l H ",
"g l l h h l c l g k g s g k k h f s g g g l k k l c H c H c c c z k l l l c H c H H c c c c c l c c l l k g g g g h h k k g u g ",
"c l f k h i g l l k g s g k h k f i h l l l c c l k c c c c c c l z k l l c H c c H c c c l g k c c l l g k l h g g g h l g i p "
};