/* XPM */
static char *result[] = {
/* columns rows colors chars-per-pixel */
"64 64 162 2 ",
"   c #7F4C00",
".  c #804D00",
"X  c #7E4B00",
"o  c #7D4A00",
"O  c #7D4B00",
"+  c #774700",
"@  c #6F4200",
"#  c #724400",
"$  c #714300",
"%  c #7A4900",
"&  c #754600",
"*  c #784700",
"=  c #5B3600",
"-  c #754700",
";  c #6E4200",
":  c #7C4900",
">  c #7C4A00",
",  c #7A4800",
"<  c #794800",
"1  c #774800",
"2  c #804C00",
"3  c #794900",
"4  c #724300",
"5  c #6B4000",
"6  c #6E4300",
"7  c #623A00",
"8  c #734400",
"9  c #734500",
"0  c #6F4300",
"q  c #643B00",
"w  c #784800",
"e  c #7B4A00",
"r  c #7B4900",
"t  c #824D00",
"y  c #7E4C00",
"u  c #553300",
"i  c #4B2D00",
"p  c #774600",
"a  c #704300",
"s  c #6E4100",
"d  c #814D00",
"f  c #814E00",
"g  c #764600",
"h  c #673E00",
"j  c #754500",
"k  c #7A4A00",
"l  c #714400",
"z  c #6D4200",
"x  c #683E00",
"c  c #613A00",
"v  c #5F3900",
"b  c #663C00",
"n  c #794700",
"m  c #6C4100",
"M  c #693F00",
"N  c #5F3800",
"B  c #764700",
"V  c #814C00",
"C  c #824E00",
"Z  c #653C00",
"A  c #673D00",
"S  c #744600",
"D  c #6D4100",
"F  c #6D4000",
"G  c #603900",
"H  c #5C3700",
"J  c #6A4000",
"K  c #744500",
"L  c #663D00",
"P  c #633B00",
"I  c #6C4000",
"U  c #603A00",
"Y  c #452900",
"T  c #492C00",
"R  c #563400",
"E  c #6A3F00",
"W  c #643C00",
"Q  c #472A00",
"!  c #5D3700",
"~  c #6B3F00",
"^  c #693E00",
"/  c #573300",
"(  c #462A00",
")  c #764500",
"_  c #492B00",
"`  c #4D2E00",
"'  c #653D00",
"]  c #623B00",
"[  c #5A3600",
"{  c #7D4900",
"}  c #603800",
"|  c #633A00",
" . c #5E3800",
".. c #4A2C00",
"X. c #4C2E00",
"o. c #533100",
"O. c #563300",
"+. c #7C4B00",
"@. c #583500",
"#. c #583400",
"$. c #4E2E00",
"%. c #5B3500",
"&. c #704200",
"*. c #4F2F00",
"=. c #734300",
"-. c #4F2E00",
";. c #482B00",
":. c #573400",
">. c #513000",
",. c #4C2D00",
"<. c #593500",
"1. c #734600",
"2. c #724500",
"3. c #523100",
"4. c #5D3800",
"5. c #543200",
"6. c #553200",
"7. c #704400",
"8. c #503000",
"9. c #533200",
"0. c #714200",
"q. c #7F4B00",
"w. c #834E00",
"e. c #744400",
"r. c #714500",
"t. c #502F00",
"y. c #7F4D00",
"u. c #4D2D00",
"i. c #673F00",
"p. c #5E3900",
"a. c #683F00",
"s. c #5E3700",
"d. c #6F4100",
"f. c #5A3500",
"g. c #7B4800",
"h. c #693D00",
"j. c #683D00",
"k. c #694000",
"l. c #764800",
"z. c #523000",
"x. c #5B3700",
"c. c #6A3E00",
"v. c #6B4100",
"b. c #462900",
"n. c #663E00",
"m. c #613900",
"M. c #4E2F00",
"N. c #4B2C00",
"B. c #4A2D00",
"V. c #633C00",
"C. c #653B00",
"Z. c #593400",
"A. c #593600",
"S. c #512F00",
"D. c #4F3000",
"F. c #5A3700",
"G. c #613B00",
"H. c #623C00",
"J. c #784900",
"K. c #573500",
"L. c #5F3A00",
"P. c white",
/* pixels */
"  . X   o o O + @ # $ + % $ & * $ = & & - ; : > O : : , < % 1 < 2 3 < 4 % 5 6 7 8 9 0 q w e r . t y u i p o # * r > > # + a s + ",
". d t f   o e g a # h < % j 8 g +   k % l < 8 z % 3 < , * > * e   r , < : x c v 5 0 c b 3 > n & X r m M + O w % N + o o , 9 g B ",
". y > O e O B 8 s $ + + $ a < d d V C < w Z A S + + D 9 w < < < r < < S , F G H J K L A - o > % > 9 B s * * w % K e > o r a D P ",
"g > > * S % g D I @ K B g B + y o & j & * e 3 9 S U Y T ; 9 + % * # q R Z # E P $ K & m L B B 9 , K B + r S 9 r > > > o o 9 W Q ",
"u < 1 ; D a ! D 5 ; ~ ; % < < E j a & w + < o ^ w / Y ( a ) # K # J _ Y ` S % * j p 1 ' u ] @ @ a K + > > e l B < f   X 2 o a [ ",
"P + # m I 8 D @ 9 a ] M g , 9 g 5 ^ J w S j r { : 0 = } 9 } l a |  ...Y X.B & r % r 1 Z o.O.c ! q x J , % 9 & w  .X C +.  X o * ",
"& + K z g < # 5 # l m I + % < K ^ M L + X O   V r S K K S a 0 ] W A A @.E c P l & % 1 & O.( #.$.%.x g a 9 + x ; &.. t d + 9 r 2 ",
"a D W & w + & & D & 9 $ B e o # I P *.&., 2 d O , < < + P =.Z -.Z @ O * @ ;.Y O.# g > r g :.>.G ] ; * w < + 8 K m 9 X d X l + d ",
"a 5 Z 8 # ! < @ c 8 B & w % , 8 x q D % % X C L & , < & D B w E & & r % L ;.Y O.c W , < g H ,.5 x @ j c <.K + O < +   > > 1.w > ",
"x F P D @ L 8 J J $ g % < w K ' >.= 2.X X r > D e + # * + < * & S S $ 9 l &.L h Q 3.&.$ 9 = P &.@ 2.l 3._ U < > $ I S $ n >   o ",
"U M x x E 5 # G ..c e w , , % H _ O.l j $ p X D : # h < <  .A S l D ^ 5 < r > 8 @.3.` i 4...5.s ~ D @ ] O.A w > g v j K a , < ; ",
"6.; $ m h I 7.T Y $.  * % + w l c J % W / e X   > b D 1 W Y Y ; 9 K K j * < w l = Y Y ,.L A b @ ; M c z 8 2.* 3 * > l M # ) ; B ",
"g 9 8 ; I D D 8.Q :.O o m % + 7.& +     2 D # X 2 % w , m ( ..# S a # h 9 l g ; 7 Y ( 9.^ I I F ; E @ 0.4 9 @ I M Z g 4 S K g w ",
"w g 8 & $ 0 q [ ] W & o > K * g s 8 < d 2 D A q.d w.2 e , & 9 9 w ; I  .+ $ E s I v G ^ E 6.Z @ E ~ ; @ $ 9 5 ( A @ + 9 @ M a g ",
"e.l = M D o.8.5 w r < %   + &.8 7 u r X O > g + C C t f X X o e * 7.l s % K 5 5 m a 0 s A G h Z | E b D & & 4 h K 8 + 9 r.l &.1.",
"* 8 @ E u Q ;.X.$ > , % e < ^ D E ] > X < r 9 # X d C t w d 2 X a @ K o % & & K # K ^ * x :.* m m h Z E K & 8 5 x @ 8 K z E K ; ",
"g # 8 5 Q Y Y t.g X k + c + m ^ z * y.r y   X   2 . d d < O d 5 # # &.r < l 8 s s M ! * p E f & * w < < J @ ^ Z #.L E v W u.= K ",
"K D & a <.T >.5 < d X p D 2.E i.^ l j o X O g > X 2 d X a < d 9 p.9 e o D m a l E $ O g . t   r g < o S l 8 v @ ;.5.' x 5.( *.a.",
"9 x K # 4 x D x # y O r s + ] x z @ 8 * g & s # > 2 d o # %   X # % > % @ & 3 K D 8 d q.  f K % l O X b @ j ^  .( [ P A Q u x s.",
"& ; M 0 8 # h E  .m % , r > & m I D M O.#.% % o % % +.K & % % 3 r 6 L m $ & 2 O $ E o O % f 2 r & * ; 9.H a L 5 ^ ^ ^ d.c s 4 x ",
"< + $ l @ ; @ # I <.G m a * a P E K ; :.f.w r r m m g % a & # 3 < Z L ~ >     . X   y V O   q.w g P $ &.D 8 ~ j + D @ $ A &.9 1 ",
"l g 9 @ m ; 4 a 8 [ ' l 9 5 5 @ $ 8 m 5 K , g.2.x m 7 + s D K # K h :.&.> o p J #.E % X B w   w K E w K 8 l a B 1 a Z s E h.5 j ",
"A 7.8 E z I # l 2.B @ D * < & # j e.; @ $ g D + I w K d 2 *   + @ & 8 B , , s _ Y ..% > > r O $ L x & 0 @ P 8 D s 9 @ I j.~ v L ",
"a * 8 g # D &.& $ & j a L O.7 2.K K + w # & &.w # I % 2 d r q.  l B w , > , @ ` Y T +.  O X > K + < g 9 g 5 M 6.P E j.A 5 x # B ",
"8 8 &.& & K g p < : r I N ( 8.& 9 @ B < K g & 9 D ; $ < d q.2 > < B 9 + & w 9 A  .k.< < * . > K 9 , % 9 K # L D s E ] G h j.h 8 ",
"d.8 g + 9 a l.B < r : + 8 W A +  .,.; & 9 B w X # w F &.< . . > e < B 9 , B l r , , , > o   B r d : > w w a # , + @  .O.q x f.S ",
"= # ) S ; G w 8 * I , l d o e % m @.s 9 9 $ $ < > < [ <.# 2 d % : + w & > l s r o + K D B e 3 < * < < > w + 8 & g @ D W a & 4 8 ",
"Z 0 a l D ; # W j Z A @ d d > 2 D #.W + < + j & > B i Q 7 O 2 < B & g a D ; a B < w , # a & &.# g r 0 r > 5.9.$ ; m 9 m + r j + ",
"L l P ; 0 D 6.z.Z b E s % q.% %  .;.E e w + a $ & M H f.I w 3 w # & 9 2.& g w g w w < s g > # , s r + # s ;.P 8 t.] l ' & X < 3 ",
"5 9 F $ , u Y Y ` u O.m $ K & # K g * ~ s 9 s s l ; a K a B B w S 7.9 ) p < < < * n < x * % p # x s 8 F W <.% - W E A E 5 $ + g ",
"&.K % : + 5.Y Y / D $ &.@ j ~ &.1 r g 4 I ; 5 ; a # B w 9 a 1 g K a 2.) 8 x % K 0.4 8  .r + % &.I @ D F $ l a ^ D ; ] x.:.x # I ",
"7.# e & @ a L M 0 l ; D L 8 Q ^ I < # ; x ' D @ # S < + Z o.$ 7.a ; a 9 M o.8 j a K 0.w O < < # &.D ^ a K # # & + l x G x.L h q ",
"l B , w J g * & 9 l m m 4 K @ @ U K a &.; l @ 9 S K , 1 7.@ & k < & j # & K & , S @ E # , , S $ J J P x $ c.l & 8 ; x L h 7 c O.",
"& w < > w e < B @ v.m a j < & # W ; m m K < K r w * r , > o < K # < r % + , % O   j J @ a & 9 m z I A m B l 0 l @ ^ v F h 7 5 ' ",
"Z P X > + * $ # 0 I m g w + 1 * j l $ r.O   y o : : o > o o > w e 3 % + o X %   d > Z D 3 > , E W ; l z - s m v @ x W ^ v 7 x E ",
"P q c c l 5 D 8 D h + @ K l S > < 7 l < d   B e % : w B r o w O d O w A % e 9 % r 9 D a &.& < - 5 ^ M G w 9 @ #.A I s h A  .7 x ",
"t.W u Q x x.m # 2.* r E E ; B B & K % o O K o.* 2 e # % X 2 d 2 < a X * , % a > g K W ~ 1.+ g # 5 ; & a w # # @ A s D Z h $.;.= ",
"*.v W x.; a ; @ # K + , I Z i ` B K r o * ; @ + w r w r O 2 X 2.K 8 O e % % o r 0 5 E @ w w g ^ p.' l 5 &.# a j.c v Z Z E <.t.*.",
"@.h L @ D ' ^ ' j.+ o w 2.f.Y Y D K r o g I + B D z ^ # g & 9 l B w B X w 9 a 6 A z I I 1 B 8 9.b.q S , > + S ~ f.L ] [ M Z W <.",
"<.z.Z x L ; D g O w G g # D ` 5.D + o o 8 K 2.9 ' h n.S B 4 # 9 B < g 9 D ; L  .,.5 M @ 0 a @ c O.P W # 9 <.&.&.b L u ( t.W s x ",
"( *.= m.G c.^ * . % 9 g K I 2.# a 0 : l.2.2.& @ :.N 4 , w $ 0 5 A 5 + % ; ; s x H M.Q f.L ' a s D j.A ~ j 0.B K @ I :.Y Y >.# D ",
" .6.= = [ c 0 > r % M O.8 $ 8 K a x w , ) j s I W E g < < a ^ h ..Y  .Z 5 W 5 0 L Q Y Q 8.i v 7 ' Z E h ; 2.[ ; L Z c b.Y :.a I ",
"q q b 7 f.L 2.+.$ + N.*.m q l 3 v A K > , j 5 $ D m & +.9 & I  .Y Y 3.$ @ E $ 5 ^ :.,.#.o.;.Y u W P x.D ; a M.8 I I &.H = a.W *.",
"v ~ s = A b < > K 8 v T x j w r + ! <.# * w & j & W x @  .4.l q 9.$.P G 0 & B M c * 8 D f.( ..x m G c I ^ E & & a 5 F x E ] [ T ",
"^ J @ L 4 j 5 % * ; # # K : r e K X.B.h P 8 r > 7.v &.L Y Y v  .L # I b a @ @ V.L w E W I = W # h 5 z ; x D % <.s q 5 m Z M E O.",
"..;.G K B 5 ; 7.+ - # x x w & z C.A E G Q v s > S q # @ ;.( ! A Z 5 E x E c &.l b &.` ( :.a ^ ' = x a l &.& X W A a j + + & w B ",
"Y Y >.#.# l $ <.l S 9 9 J D # c 5.9 K j.:. .S # P L ; K 5 L x Z D &.x :.Z.M & w , l ;.Y ,.7 m.U c ^ A F 8 B > D I a # * d > w K ",
">...] h g S 8 P A # a + 9 x x I 8 l ; I 5 V.M I  .v.a K $ D D J &.0 f.Q 8.x g a o 3 v ` f.H v U Z V.P A.s > B 5 + s g , X G c E ",
"i t.E E &.@ 3 8 P g +.l a ' E ; m & 7 G S.D.v G C.I &.5 @ # E ; l q N ,.<.^ 1 : o < D H G q E m m a = *.@ * + v.j q.r < # $.>.L ",
"6.O.c E x ] % + ; # 8 = b b Z D ! L P ' M.` E ; J d.s E ^ ; c.F @ a 4 &.D &.l & < g $ 3.8.L J a E R Y Y | # < K ^ z k w B ; A E ",
"v N F.h.! 5 x >.' z s h G.P 5 ; a x ~ s 5 L ^ D D 8 4 l 0 M E 6 a a + p 9 ! a 9 m c m ; c.h D a I H Q Y I F B l 9 * > 8 # @ l S ",
"/ <.G Z b 1.7.$.P 5 M q c l ~ e.0 E I D D L b A 0 w ) a $ Z A N ~ 8 * n , K ; @ D x I m I ~ &.N M J @ 9 < > r z + + > + D s ; # ",
"W = ] A s.] M H.! ! E W A # & K N ~ h @ ~ P Z E 5 9 * 9 6 z 4.$.[ ; p , w M L A & - z ; @ l g a  .= j 2 < # j * 1 w $ l 2.$ J C.",
"F.>. .] 4.N f.<. . .W v I @ % 9 4 W ;.z.I &.a m W D < B g ~ = T [ n l * 3 ^ ^ , @ < 9 * + S # # x G n < * $ P % B i  .M K # D A ",
"W A P Z f.N.` c D @.G x d.0 B w F W M.5.s S a 5 ^ L m @ & 1 a ^ l % & g J.P v 9 + % X K #.W E ^  .O.L $ K # & r + O.i j.& K @ 5 ",
"o.A h D m.T N.M 9 L Z ; [ v M $ & 7.c A ^ j 9 x j.E a.; & % < + & 1 r < g = [ I g I j - ` c E c x v a.0 9 x 5 @ @ $ U 8 $ s j.; ",
"@.J ^ s x K.#.x x a a [ Y ..Z L ] 7 L W E D &.@ J E [ w d d > > X g K w B ^ :.A r > > B @ 9 l x M 5 @ % + g M & & 7 6.I W Z L.l ",
"a K ^ I &.K a  .= s + z.Y Y W I #.;.5.E 2.&.F v.I 5 n.| + X > X q.% $ 3 # D x a r X   & @ l s ; s I # # g > + J.3 A Z D c E P ^ ",
"s m # g & K & E 4.@ l L t.O.L W i ;.3.W H D & M j D a t.L B o   * + q.9 9 E z 0 w O 2 # F l I ; 7.a @ 5 @ g * D 7 $ F p ! I 5 b ",
"E A j r < K F & &.^ 5 s z $ 5 t.Y b.c.$ $ K g D < > X M 2.9 & O 3 X . > o > g @ a 7 a & & K J c v L l I 7 o.G I ^ 5 m K # 1.K F ",
"m 8 K w * g m w I E m q b L j O.Q M.' K K B g ; 8 + o o r > %   , + o + r . & J K +   X X p M D 8.u S a u.Y Q c h 5 ; @ e , %   ",
"J 9 9 @ $ o 1 & Z 4.P N j.5 B 6 D D J x ^ ^ D M m r d . + < 9 r r s * < < y & # e 9 K q.% .   l.w % , E 5.Y ..G.m F v.; ' D $ X ",
"W + + A x K < + W I P 6.P a m A N 5.] L h s 0 ; 8 % d e   O e % * s 8 B a y d * d y % 3 > * + l > o + j I G L ' W h x m ; W ,.N ",
"< $ v I E t.c K a a ] R L J ~ z H ,.I # 8 g < , 9 D % > y % O B B + 5 l S B w.2 o . . < X K h J w o K $ Z 5 2.A x q 7 I # P ,.o."
};