/* XPM */
static char *result[] = {
/* columns rows colors chars-per-pixel */
"64 64 77 1 ",
"  c #211000",
". c #2D1700",
"X c #321A00",
"o c #3D1E00",
"O c #401E00",
"+ c #442500",
"@ c #492400",
"# c #462900",
"$ c #4B2D00",
"% c #502F00",
"& c #4F3000",
"* c #543200",
"= c #5A3600",
"- c #5E3800",
"; c #612F00",
": c #643000",
"> c #643C00",
", c #693E00",
"< c #723E00",
"1 c #7B3F00",
"2 c #6D4100",
"3 c #734500",
"4 c #794600",
"5 c #774800",
"6 c #7B4900",
"7 c #4D5B5A",
"8 c #656859",
"9 c #844300",
"0 c #8B4600",
"q c #814D00",
"w c #8C4A00",
"e c #944B00",
"r c #9C4D00",
"t c #975100",
"y c #9C5800",
"u c #92500C",
"i c #A34F00",
"p c #A55200",
"a c #AD5200",
"s c #A25D00",
"d c #AD5C01",
"f c #A4550C",
"g c #B05600",
"h c #B55D00",
"j c #AD6000",
"k c #AD6900",
"l c #B46300",
"z c #BB6400",
"x c #B46A00",
"c c #BD6A00",
"v c #B77500",
"b c #BC7000",
"n c #A46E1E",
"m c #B2771E",
"M c #C26F00",
"N c #C67400",
"B c #C97707",
"V c #C67B00",
"C c #CA7A00",
"Z c #826240",
"A c #9E7D40",
"S c #CE8200",
"D c #D28500",
"F c #D68B00",
"G c #CA8B15",
"H c #C48B20",
"J c #D28428",
"K c #E29B3E",
"L c #537A8E",
"P c #437AA6",
"I c #4493D3",
"U c #7EA2C2",
"Y c #999C85",
"T c #85A4B7",
"R c #84A5B8",
"E c #82AAC5",
"W c #80ADCC",
/* pixels */
"6q6q6q65233363353=33536666646656q563622>332>5666q6*$363366633323",
"qqqqq66623>663353q6435326666365666454,>-22>>6663q6226666-6q66355",
"q66q66332335335qqqq43>,35323563665435,--23>,366663526356366663,>",
"666636322333335qq35556633>##236653>=>3,>3332>56363636336666q63>#",
"*65223-2,2,3554,5334556,6*##34333,##$365355>*>32233666335qqqq63-",
">532232233>,4535,,,5356663*>3>23>-$#$556665>%*>->,,66336>6q6q663",
"3532363233,,5644,,>5q4qq6333322>>>,=,>>33663*#=$=,3335,2<6qq536q",
"22>3553323335643,>%34qq65565><>%>3633#+*35663*$>>263653323qq635q",
"22>33-62-3336663,>266qq,366323623366>##*>>665-$,,23>=36663666366",
",,>22>3,,336653>%-36q54363335633333332,>#*323-><232%#>56323356q6",
">>>2,23>#>66666=#*3335q,63,66-,332,,6663**$$-#*,222>*,563>333562",
"*232>,2##$666353>,5>*46q6,23>##233333663=##$>,>32,>23356563,3525",
"5332,22*#=q6263335qq6236q6652#$3333>3332>##*,,222,32333,2>333335",
"633332>=>>366363235qq2,qqqq64333522-52,2,->,,*>22,3233,#>2533>35",
"33-,3*%,5666q523>*666636qqqqq666333263222232,>>>>,>2333>333333<3",
"332,*##$364565,2,>6q6633qqqq5qqq3236633333,3,*522>>,3332>3332,32",
"5332###%3666>32225q66q6qqqqq5qq233365332,,-55,q55544,2,>*,,->$-3",
"3232=#*26q6623>22236q666qqq635q3-3662,33,363qqq4556533>2#*>,*#$,",
"3,333,2>366623>,223633236qqq34q63366336333qqqq4536q>23,-#=>>#*,-",
"32,333>,-265663222>*=6666563354662>,33q63>q66qq4333*=3>2,,,3>,3,",
"633322232=-2333>,33*=566223533366>>2qq6qqqqqqqq55>3<23,35,,3>333",
"333222333=>332,233,,3653,2>5,2333,*3665,*,4455653,53333353>3,,23",
">33,2,323522363333,33325,63qq5q53333463##$6q6663>,332>32<32,,,>>",
"333332333333>*>3335533353,5qq66q3356453$##6q6q6354533,,*>,,,,,33",
"33333335666,>+*33<363353,<35q6q65336363>>,545q63346333,22,>->,,3",
"2333335366653>>3>#33355q35,36qq66633633656566q54q665523562-*>>=3",
"=3532>335,53qq642=23333564=*3qq6666363266532565546565533332>3333",
">233223>4>>3qq6q2=>34533q5$#>666333322336363333356364**322323633",
">3>232*%>>,34q54-#,64q554,-=25663533355555625635<6332#>3%>3>3666",
",3,35*##%**,3333334,0hzzzpe325333336eeewtw6>5543,232>*63>,>,2353",
"33665*+#*,3323,39999hDFFFFNr33533pppNSFFDn8>99a9,32,339994>==,3,",
"236332>233,,<<<izziehDFFFFFbsyeeeVFFFFFFDAIZihKBhhhtqtNNNx3-=>,>",
"33662353332<999aaaeagNFFFFFDz+OOo#MFFFFFFHWUaNDDCDDCcdSDcj<,>>-*",
"3636566522490ehhtpiaaahNDDDkX     *SFFFFFGETzNFFDCDFMovVcx<,,>2>",
">>6636334rCCCCczzzhaaaaazhh1      .kCCCDFDRYzNFFNhhzho,<4<,,->,,",
">>>-323aCDiap>>>>>>iaaaaaaaeX     @igggDDDRPgNNNMaagge3*>,2,>->,",
"$>*#,wcclw62,255336>gaaaaazzy:++%;iaaaCFFmL71dJBrrr0933<,22>>$#-",
"*->-2ae333362>$$33669aaaazDDDDq9aaaaazFFNcfa9>u01>32333>>->>,=%%",
"*>>22>,>,3662=##<3664aaaghDFFDd3>eaaazDxrereiaaa=>35553>=>>=2>>=",
"=*>2>23565>332$*256q3<9aaaNFFFDx910gaw5>%>>,3113=:>33*33>>*#%>2>",
"#&=>->,5q63332333265333>rrixxxzar91:>,2>-&#=>>322,>,333332*+#*32",
"-*===>3666,*33333>55333,>>233,39099>2>,3>###&$->>>2>23=3>>>##*2,",
">>>>*,3633$$2>35-,3643,3225633,->99,223,,*$=*##*>>=223$3222-->>&",
"-22=,>5633-$>3663-=345335>>3-=3>%=>:333,>532=#$,,>>2,,33222,2>=$",
",,2,35,6323336663$$>>3463-2>##-->32,3,,>>52>2=>3>222,26=2>22>2>*",
"$#>33,23553,>63,,>,>#>363>32##-,>,,,,>33>3$#*3>>=,23336>>2363365",
"##%*333*3333223>*33>*-33>>232>>>23>**,3553@#$>->>>>2336223336653",
"*#>,333>>3263>,,333,2>,,=233322232=#*,33q5-$=--->>>-363232666>-2",
"$%,,3263>363222223>>$%>->,3,23,22>-$=,66662=->,222-&23523q643$%>",
"**>,>-63233=>>>2->>>&$,2,32,,2,2233<2233633*&>232*##>353,24553,,",
"->=,-2>*>22>>>223>,22>,2,33322,232553=332-22,>222=##223335433233",
"**>>>33$>22>-2,33,222>>,35323>>>,35563222,,2223->223666255q52223",
">=>>->,>-=2>>353>,>2,>>>,33332-$-33452>>33222332-=366335553333,>",
"=%->--==-->-22633>#*2232>2633,=$*5356>,6263653332-6533>65#-,332>",
">,>>=$$>2*>>32552>$*2332,>23363,34356>-33663=>,,-*>333365*#,332,",
"*>>2-#$,3>>2=->332>,,33,,,,2365335643==26235$-2>>-223,2233>332>3",
"=,,2>==,223=#$>>>>>>,2222,=3qq66q5335,*,6666233>>22663233>*,,>-3",
"33,2332-=23*##>2=#*,322222>>5q66q5363,,36qq323222,3336365>>2>,>,",
",233333,-32>$*>>$#*>=232323*,3qq55q33,2236q3232233222532>3,5-2,>",
",>3663233>22232&##,33332666,33364qq466332>35332-->3,>*-2>,<3333,",
"23365326222>>>3*#$>333323366666q55636q32556665,2&*32$##>>2226666",
"23323663>->-,233222,2,2226qq363662656633633q6q656662*#$-2222>23q",
">33,>363>,>*>22,-*>>>22236q6q64553333qq6qq66665366332>>>>,,22>#>",
"63-22$>332>*>,22-$2333663266q4q5532333qq6q6663>26633>23>,>>,3>$%"
};