/* XPM */
static char *result[] = {
/* columns rows colors chars-per-pixel */
"64 64 221 2 ",
"   c #2C2B27",
".  c #332C26",
"X  c #3B2C24",
"o  c #750F0F",
"O  c #6B180C",
"+  c #73110E",
"@  c #442700",
"#  c #462900",
"$  c #4B2D00",
"%  c #512E01",
"&  c #543200",
"*  c #5B3600",
"=  c #5F3800",
"-  c #5F330C",
";  c #452F1D",
":  c #57281F",
">  c #4D301C",
",  c #563217",
"<  c #6C2509",
"1  c #76270B",
"2  c #613402",
"3  c #643C00",
"4  c #693E00",
"5  c #673409",
"6  c #7B3403",
"7  c #733B02",
"8  c #793A04",
"9  c #752D13",
"0  c #70281D",
"q  c #643413",
"w  c #683513",
"e  c #6F3F12",
"r  c #753712",
"t  c #452F29",
"y  c #532820",
"u  c #61352B",
"i  c #6D4100",
"p  c #734500",
"a  c #794600",
"s  c #774800",
"d  c #7B4900",
"f  c #72420A",
"g  c #78470E",
"h  c #7B4614",
"j  c #8A170B",
"k  c #860914",
"l  c #960419",
"z  c #9E021C",
"x  c #881412",
"c  c #941315",
"v  c #B91C09",
"b  c #AC0316",
"n  c #AD0916",
"m  c #A40219",
"M  c #B40314",
"N  c #BB0411",
"B  c #BD0A13",
"V  c #802806",
"C  c #932A08",
"Z  c #853D01",
"A  c #8C3E01",
"S  c #81300D",
"D  c #973A02",
"F  c #962917",
"G  c #9A321B",
"H  c #B82409",
"J  c #AB3900",
"K  c #B43200",
"L  c #BF3500",
"P  c #A62614",
"I  c #AA2F10",
"U  c #803C2E",
"Y  c #9C3721",
"T  c #A53523",
"R  c #BE3B26",
"E  c #C4040E",
"W  c #CB040C",
"Q  c #C40F0F",
"!  c #CB0C0E",
"~  c #DA0506",
"^  c #DE0C06",
"/  c #D30509",
"(  c #D40E0B",
")  c #DA0E08",
"_  c #CB1907",
"`  c #D41605",
"'  c #DB1505",
"]  c #D21309",
"[  c #C40E11",
"{  c #E40503",
"}  c #E40D05",
"|  c #EB0E02",
" . c #F10F01",
".. c #E31303",
"X. c #EB1302",
"o. c #E31E05",
"O. c #ED1D03",
"+. c #E11408",
"@. c #F31100",
"#. c #F51C01",
"$. c #FC1D00",
"%. c #C92404",
"&. c #D52603",
"*. c #DC2403",
"=. c #C23200",
"-. c #E22400",
";. c #EB2401",
":. c #FB2405",
">. c #F52907",
",. c #E73C16",
"<. c #F43612",
"1. c #C53F29",
"2. c #824601",
"3. c #814D00",
"4. c #8C4C01",
"5. c #964A03",
"6. c #8A540D",
"7. c #995304",
"8. c #834B16",
"9. c #854E19",
"0. c #884E18",
"q. c #944117",
"w. c #885116",
"e. c #8E521A",
"r. c #965915",
"t. c #93561C",
"y. c #935A1C",
"u. c #995C1E",
"i. c #A75606",
"p. c #AE5503",
"a. c #B45504",
"s. c #BD5A05",
"d. c #B85B09",
"f. c #A65711",
"g. c #B65A15",
"h. c #9E611C",
"j. c #AE640D",
"k. c #AA6716",
"l. c #A2631C",
"z. c #BA6619",
"x. c #9A402B",
"c. c #9E5E20",
"v. c #9C4030",
"b. c #A34125",
"n. c #A94329",
"m. c #B0562B",
"M. c #B64631",
"N. c #AD5533",
"B. c #9F6225",
"V. c #A56323",
"C. c #A96521",
"Z. c #A56429",
"A. c #B86D27",
"S. c #BB712B",
"D. c #AE6B34",
"F. c #BD793A",
"G. c #C45B04",
"H. c #CB5B09",
"J. c #DA650B",
"K. c #C56516",
"L. c #D46610",
"P. c #E5660B",
"I. c #EC7512",
"U. c #F27A13",
"Y. c #C9472F",
"T. c #CA492F",
"R. c #D74B27",
"E. c #C74A30",
"W. c #C25836",
"Q. c #DD5035",
"!. c #E74F26",
"~. c #E35736",
"^. c #D0752F",
"/. c #DB7629",
"(. c #C66938",
"). c #DA6737",
"_. c #CD7E36",
"`. c #C87B39",
"'. c #EE7B26",
"]. c #E06337",
"[. c #8F6D4B",
"{. c #A2724C",
"}. c #BC7546",
"|. c #C87C48",
" X c #D67647",
".X c #E56843",
"XX c #E9734B",
"oX c #E77D51",
"OX c #F4851A",
"+X c #CF803E",
"@X c #F3882A",
"#X c #F38637",
"$X c #948A7A",
"%X c #A58E70",
"&X c #CC854C",
"*X c #D58543",
"=X c #DD8A44",
"-X c #D68849",
";X c #DA8A48",
":X c #D98A55",
">X c #DD8956",
",X c #DE9153",
"<X c #DD935C",
"1X c #E48845",
"2X c #F18C43",
"3X c #E98957",
"4X c #E59455",
"5X c #E4965A",
"6X c #E89558",
"7X c #E6995C",
"8X c #F49956",
"9X c #E69960",
"0X c #EB9C62",
"qX c #F69F61",
"wX c #EFA166",
"eX c #F4A76F",
"rX c #6197BE",
"tX c #78AECE",
"yX c #968E81",
"uX c #94B5BD",
"iX c #8DBCD2",
/* pixels */
"d 3.d 3.d 3.d a i p p s a p p a p & a s s i a d d d d d d d s s 3.s s p s 4 p 3 s p i 3 s s d 3.3.3.& $ a d s a d d d p a i 4 a ",
"3.3.3.3.3.d d a i p 3 s s s p s a 3.s d p a p i s d d a s d a d 3.d s a d 4 3 = 4 i 3 3 s d a a d d i i s d a s 3 s d 3.a s s a ",
"3.3.d 3.s d s s i i a s p i a 3.3.3.3.s s 3 4 s s s i s s s s s d a a s a 4 = * 4 p 4 3 a d d s s p s i s a s a p s d d s p i 3 ",
"s d d s p a s i i p s s s s a d a s p s a s s s p 3 # # i p a s a s 3 & 3 p 4 3 p p s i 3 s s s a p s s s p p a d d d 3.d p 3 # ",
"& s s i i i 2 i i i i i a a a 4 a p s s a a 3.4 s & # # p p p p i i $ @ $ s s s s a s 3 & 3 i p p p s s d s p s d 3.3.3.3.d p * ",
"3 s p i 4 s 4 i p i 3 3 s a p s 4 4 4 s s p a d a p * 2 p 2 p i 3 * $ # $ s a d s a s 3 & & 3 = 3 4 i a s s s a 3 d 3.d 3.d d a ",
"s s s 4 s a p 4 p p i i s d a a 6 7 4 a d d 3.3.a s s p p i i 3 3 3 4 * 4 3 3 p s a a s & # & $ & 4 s p s s 4 i i 3.3.3.s p d 3.",
"p 4 3 s s s p s i p p p s s D _ X.' ` _ %.K J D A 2.a a 3 p 3 & 3 p d a i # # & p s d s s & % 3 3 i a a a s p p i p d 3.d p s 3.",
"p 4 3 p p = s i = p s p a A v _ ] ' +...@.@. .X.X...' &.%.H D 4 s p s s 3 # # & 3 3 s s s * # 4 i i p = * s s d a s d d d s s d ",
"3 i 3 i i 3 p 4 i p a a A v ) ] ] ] _ ] ] ] ` ' ' ..X.X.@.$.-.D p p p s p p 3 4 # & p p p = 3 p i i p & # 3 s d p 4 p p a d 3.d ",
"3 4 3 4 4 i p 3 # 3 s a H ( ^ } } } X.} ....+.' ' ` _ o.$.:.$.*.A 4 4 i s d a p * & # $ = $ & i i i i 3 & 4 s d s 3 p s p a a i ",
"& i p i 3 i i $ # $ 3.I ] ) ) ^ } } | | @.@.@.@.@.X.X.#.$.o.O.$.&.a p p a s a p * # # $ 3 3 4 i i 3 3 i p p s s s a p 3 p s i s ",
"s p p i 4 4 i % # * D ! ( ( ^ ^ } } } |  . .@. .@.@.$.$.,.n.P >.:.K p 3 p p a p 3 @ # & 3 i i i i i i i 7 p i i 4 3 p p p s s s ",
"s s p s p p 3 * 3 S Q ( ( ( ) ) ) } } X.|  . . .@.@.$.<. X}.Y H #.-.D 2 s i 4 4 i = 3 4 4 & 3 i i i i i p p i @ 4 4 s p i 4 p p ",
"p p & 4 p % % 7 2.v ! ! ( ( ) ) ^ } } } |  . . .@.$.:.].<X&XN.F %.:.&.A a p 4 4 i i i i 4 3 3 3 3 i 4 i s p p 4 p p s p p p 4 s ",
"s p p 4 & # # % C Q ! ! ! ( ] ) ) ^ } ^ } { {  .#.:.!.>X9X<X&XN.F ' ;.=.2.s s p p p 4 s 4 & a i i 4 3 4 p p p 4 3 p p p i 4 s 4 ",
"p p p 4 # # # j [ [ Q ! ! ! W ! W W W / ~ ~ { @.$.,. XwXwX9X:X&Xn.P o.:.J p s i i 4 = a a 4 3.a s s a a 4 4 4 3 * 3 4 = 3 $ = p ",
"p 4 s p & $ V Q [ B B M M M N N N E W / ~ ~ } $.<.).-XwXwXwX5X<X}.G v #.;.Z i p 4 p d s 3.3.3.d s s d p p p 3 4 # & 3 4 & # % 3 ",
"p 4 s p 7 S n M m m m m b b M N E E E / / { #.:.~.;X,XwXwX0X7XwX&XN.G &.$.&.2.s i p 3.3.d 3.s s p d d 4 i s 4 = # = 3 4 # & 4 = ",
"s 4 4 4 6 c m z z z z m m b M M N E E W /  .$.!.:X9X,XwXwX7X7XwX<X&XN.P o.$.=.2.p 4 d 3.s 3.3.d s a i & * p 3 4 4 4 4 i 3 i p 3 ",
"a s p 8 c z z z z z z z m b b M N E E W } #.>. X9X0X,XwX0X0X9X0X7X,X|.n.P #.;.J 3.d 3.3.d 3.3.s s 3 p 4 i p 4 s a 4 i p 3 p p s ",
"p a 7 x z z z z z z z z m m b M M N E ( #.:.).>X0X0X4XwXwX0X9X0X5X7X<XD.G H $.*.6 3 a d a s d s s 3 s p p p p a s p 3 i i 4 4 p ",
"3 p 7 x z z z z m z z z z m b b M N [ X.:.!.:X5XwX0X5XwXwX0X9X0X5X7X9X|.m.F &.$.v % d d d d d i 3 4 s i i 3 p 4 i s p 4 4 4 = 3 ",
"4 s i < + k l z z z z z z m m b M M ) :.<. X7X7XwX0X,XwXwX0X9XwX5X7X0X*X_.T P o.#.C d 3.d 3.d s s a s p s 4 4 & 3 4 4 3 4 4 p s ",
"p p p 7 < O + k l z z z z z m b b ! #.>.).5X0X7XwX9X,X0XwX9X9XwX5X7X0X;X=Xm.C H O.;.D d d 3.d s s d s s p p 3 i 4 4 3 = 3 3 4 p ",
"7 p p p 7 5 < O + k l z z z m m N X.>.!.&XwX0X7XwX5X X XoX3X3XwX5X7X0X;X1Xl.8 F %.#.K d d d s s 3.d d s s p p s s p 3 & 3 4 & s ",
"& p p s i 3 7 7 1 O + k z z z b ..$.,.S.-XwX0X7X3XW.Y.Q.~.~..X3X7X7X0X;X=Xu.4 a D %.A i d d s s a a a s s s p p p p 4 3 p s p p ",
"4 p 4 p i i f 4 8.r < O o k z ! #.O.m.F.,XwXwX,XW.Y.Q.M.R 1.Q..X4X5X0X;X=Xu.f a a 2.s p f p p p a s p d s & & p i 4 s 4 s a p s ",
"3 p 3 i p 4 & * u.e.h r O O x o.$.I c.|.6XwX0X XE.T.u t . y T Q. X7X0X;X=Xh.s s a a a i s d p s i d a p i $ 3 p % 3 i 3 p d a s ",
"4 p 4 p s & # $ c.V.c.9.h 9 O v L t.Z.*X6XwXwXW.Y.v..     . : R ~.5XwX;X=Xl.s s a p a 4 a a p p 4 i p 4 3 & s s 3 i 3 i 4 p a a ",
"p s a d a & # & c.V.V.u.e.h e S r 8.Z.*X6XwX7XW.Y.u     .   X F Q.3X0X;X=Xy.d s p p p 3 a a a p 4 p i 4 i p i i i i 3 * & 4 p 4 ",
"i p s s p i 3 f C.V.V.c.c.t.e.h e c.Z.*X4XwX9XT.M.t           0 R.3X0X;X=Xe.p s i p p s d s a p p 4 4 p p p p s s i 3 3 = 3 4 3 ",
"s s d s i s d d V.V.V.c.c.t.t.0.9.A.`.=X4XwX5XT.Y .           : 1.XX0X;X1Xu.s a s i 4 p a a p p 4 i 3 3 i i i s p i i 3 i 3 = * ",
"s s s d s d d d V.V.V.t.c.t.e.0.e.A._.=X4XwX>XE.v..           y 1.XX0X;X=Xl.d d d s 4 p i s s i i 4 3 i s p i p i i * i = = i i ",
"3 3 d d s s i g C.V.V.c.c.t.t.0.e.S._.1X6XwX>XY.U             y R XX0X;X=Xl.s 3.3.d 3 i s s a 4 3 i p i s i i = i = i i = = = i ",
"3 3 = 3 i i i d C.V.V.c.l.t.t.0.e.S._.=X6XwX>XY.v.            y R XX9X;X=Xl.s d a s i i p s a s i 3 i = s p i * i i i = i = * i ",
"$ 3 & # i * i s C.V.V.c.c.t.t.0.e.S.+X+X6XwX>XY.U             y R XX0X;X=Xl.p a s s 3 4 p a a f i i p i d p i i i i i = i # # * ",
"% = 3 = i i i f C.V.V.u.c.t.t.0.e.S.+X=X4XwX>XY.x.            y R XX0X;X=Xl.d s i i 4 4.p.s.s.j.f.3.p i i p i i * * i i i & $ & ",
"* 3 3 i i i 4 4 V.V.V.c.c.t.t.0.r.S.+X#X4XwX>XE.x..           y R XX0X;X=Xh.p i 3 i 7.L._.}.{.Z.B.j.7.d d s p i * 3 = = i 3 i & ",
"& & 3 i 3 i 7 2.C.V.V.t.c.t.t.0.w.S.+X+X4XwX>XE.x.t           y R XX0X=X=Xu.3 3 $ i s.%XuXiXtXrXrX[.k.s p * i p = i & # $ = i i ",
"# & * 3 = 4 4 d C.V.V.c.c.t.t.0.y.S.+X+X8XwX,XE.b.q > X       : R XX7X;X=Xh.i 4 * * a.D.%X%XyX$X%X&XK.a s i s p i i * # # & i i ",
"= & * * * = f 3.C.V.V.c.c.t.t.0.e.S.+X#X7XwX:XE.b.w w , ; .   : R XX0X;X=Xy.i i 3 2 j.z.d.K.(./.wX8X/.2.4 p * i i 3 = @ # & i i ",
"3 3 3 3 * 3 p 3.C.V.c.c.c.t.t.0.e.S.+X+X4XwX:XT.b.w q q q > . : 1.XX0X;X=Xu.p 4 4 8 A.`.z.K.-X4XeXeX#X6.p i $ s i i i * * i i $ ",
"= 4 i = 4 3 d 3.C.V.V.u.c.t.t.9.e.S.+X+X4XwX3XT.x.w q q q q , , R XX0X;X=Xu.s 4 3 i.z.F.g.K._.3XeXqX2XK.4 4 s s i i i 3 i 3 * # ",
"i i i i f p i d C.V.V.u.u.t.t.0.e.S._.=X4XwX:XT.Y w q q q q q 9 R XX0X;X=Xu.i 3 2.G.^.A.i.K.1X1X8X8X#XI.6.i d * i 3 i i = i i & ",
"# # = p s i i f r.l.V.u.c.t.t.0.e.S._.=X4XwX>XT.n.q q q q q - 9 R XX9X;X=Xt.4 p 4.G.d.i.p.K._./.@X#X'.OXj.s d 3 i i p s p p s p ",
"@ # % & p p p * p w.u.u.c.t.t.w.e.S._.=X4XwX>XY.b.q q q q q q 9 R XX9X=X=Xy.p s 7.G.G.p.a.d.L.L.@X#X@XOXd.s s i i i p s 3.d s p ",
"& # = i p p p = 3 4 f t.c.t.t.w.e.S._.=X4XwX>XY.b.w q q q q q 9 R XX0X=X=Xt.4 4 4.p.s.G.G.G.H.J.@X@XOXI.p.s s i s i s d d = = i ",
"$ % i i i i p i * i i i e.t.t.9.e.S.+X#X4XwX>XT.b.w q q q q q 9 R .X:X`.*Xe.i 4 2.5.i.a.G.J.L.I.U.U.I.J.2.p p 4 a 3.d s s % % 3 ",
"& & * i i = s p = i 3 $ * h e.0.e.S.+X+X4XwX>XT.b.w q q q q q 9 R m.f g w.4 4 4 4 7 5.i.a.H.J.P.P.P.H.Z & i p p 4 4 s a s 4 3 i ",
"= = * i * i i $ = 3 = & & & f 8.e.S.+X=X4XwX,XT.b.w q q q 5 q 5 T q.5 4 3 & 4 4 3 & 4 2.5.i.a.s.a.5.2 @ 3 4 p p s a a p p i p s ",
"& * = = i p i $ = 3 = * & 3 * 7 8.S._.=X4XwX:XE.b.w 5 * 5 & % % 5 4 4 4 4 4 3 4 4 4 3 3 4 7 8 3 4 3 3 7 a d s i s s d a i i i p ",
"i * 3 i * = i = * * 3 = * 4 4 3 5 S._.=X&XD.9.n.q.3 3 2 3 = % # % 3 4 4 i 3 3 3 p s i i i i s i 2 = s 3.a p s a s s i p p i i 3 ",
"* % = = = = * * = * = * 3 4 4 4 4 u.`.+Xu.4 2 3 * 3 4 4 4 = & @ & i 4 p p 3 3 a 7 s s s s s p p 4 = s s s p 3 a s $ = i p p i 3 ",
"3 = = 3 * $ $ = i & = 3 4 4 f p 3 3 h h f 4 3 3 2 = 3 3 4 4 4 2 4 p p p s 3 = s a a d s & 3 4 4 = & 3 p p p s d s & $ 3 s s i i ",
"& i i i = # $ i s 3 3 i * = 4 4 i i = 3 3 i 4 3 3 3 3 3 4 s s p i s a s s * * 4 s 4 p s $ 3 4 3 3 2 i i p 3 4 i i p 2 p i i 4 i ",
"& 4 4 4 4 & & 4 4 i p * @ $ 3 3 3 = 3 3 3 i i i 3 3 & s 3.d d s d s p s s 4 & 4 d d d s i s p 3 4 i i a s s i s s 3 & 4 3 3 3 p ",
"p s 4 4 p p p = = i a & # @ 3 i * # & i i i 4 i i i 3 3 a 3.d 3.3.a p a p 4 4 i s 3.3.a i p i i i 4 p s s s s s a 3 3 4 3 4 3 3 ",
"p 4 p s p p s 4 = i p 3 & & 3 3 $ # % 3 = i p 3 s i p % 3 s d 3.a a 3.s s 4 i i s d 3.p 4 p 4 i p i i 4 i s s i 3 p 4 s = 4 4 3 ",
"4 4 s s a p 4 s i 4 4 i i i i % # # 4 p p p s i s s d 3 p s s d s d 3.d d s s p i 2 p p s p 4 3 3 3 p 4 3 % = i 4 4 i s p p s i ",
"4 p p a s s 4 s i i i 3 3 3 s & # $ 4 s s s s p s a d 3.d d d 3.a s d s d 3.s i s s d 3.d a 4 4 % & s p $ # # = 3 i i i s d d 3.",
"4 s p i p d a s 3 * 3 = 3 i s i i i i 3 3 4 4 4 4 d 3.3.s d s s d i a a a d p p s s s d d 3.d s s s s 4 & # $ 3 i i i i 3 i p d ",
"3 s s 3 3 s s s 3 i 3 & 3 i i 3 = % 3 3 4 i i i p d 3.s d d s a a i p s p d 3.s 3.3.d d d s s p d d s s i = 3 3 3 i 3 i i 3 $ 2 ",
"a i 3 i i $ 3 s i i = & i i i i = $ 4 p p s a a s i d d 3.d d s s a i i s s 3.3.d 3.3.s d s 4 i s a p p 3 i p 3 3 3 3 i p 3 $ & "
};