/* XPM */
static char *result[] = {
/* columns rows colors chars-per-pixel */
"88 70 256 2 ",
"   c #040506",
".  c #12110E",
"X  c #0B0E10",
"o  c #151412",
"O  c #1A1815",
"+  c #1E1D19",
"@  c #211E1A",
"#  c #3A1E1C",
"$  c #23221E",
"%  c #28231F",
"&  c #211A21",
"*  c #262521",
"=  c #2A2622",
"-  c #2C2A26",
";  c #2F2D28",
":  c #342D28",
">  c #35312B",
",  c #3A332C",
"<  c #3B3734",
"1  c #3D3934",
"2  c #55331C",
"3  c #653C17",
"4  c #48372B",
"5  c #593A27",
"6  c #443C33",
"7  c #453E37",
"8  c #543330",
"9  c #633E26",
"0  c #6F4312",
"q  c #4B4136",
"w  c #46423C",
"e  c #4C433B",
"r  c #5A4731",
"t  c #55483A",
"y  c #68452A",
"u  c #744C28",
"i  c #6F4F37",
"p  c #674838",
"a  c #785535",
"s  c #4C4843",
"d  c #544C43",
"f  c #584D44",
"g  c #5C5449",
"h  c #5B5956",
"j  c #665848",
"k  c #63594D",
"l  c #775A47",
"z  c #73524B",
"x  c #655D52",
"c  c #685E54",
"v  c #4A6D4A",
"b  c #77634B",
"n  c #6A6358",
"m  c #756656",
"M  c #776E5A",
"N  c #746A5C",
"B  c #7B6D5C",
"V  c #6E6C68",
"C  c #766D62",
"Z  c #7C7265",
"A  c #78746A",
"S  c #8C5A0D",
"D  c #865929",
"F  c #845B36",
"G  c #915F37",
"H  c #94672B",
"J  c #89643A",
"K  c #946C33",
"L  c #966938",
"P  c #A56B31",
"I  c #A6783B",
"U  c #82594C",
"Y  c #886748",
"T  c #936C47",
"R  c #98754B",
"E  c #896958",
"W  c #916E54",
"Q  c #89755A",
"!  c #987856",
"~  c #B0784C",
"^  c #A37B55",
"/  c #8A6B64",
"(  c #837563",
")  c #857B6C",
"_  c #897968",
"`  c #967968",
"'  c #887E72",
"]  c #997A74",
"[  c #9B7C74",
"{  c #A67D72",
"}  c #CE784D",
"|  c #7F8976",
" . c #B18A36",
".. c #9A805F",
"X. c #AB8649",
"o. c #B48A48",
"O. c #BA984B",
"+. c #A78558",
"@. c #B78C56",
"#. c #B89658",
"$. c #BEA153",
"%. c #8B826C",
"&. c #94846B",
"*. c #9A856A",
"=. c #8C8274",
"-. c #8A8677",
";. c #938474",
":. c #9C8C73",
">. c #9C847A",
",. c #948A7C",
"<. c #998979",
"1. c #8C9677",
"2. c #9A947B",
"3. c #A68869",
"4. c #B28E6D",
"5. c #B89667",
"6. c #A58B77",
"7. c #A3847C",
"8. c #A3947B",
"9. c #A99478",
"0. c #B4997A",
"q. c #96A47A",
"w. c #B6A770",
"e. c #BBA37B",
"r. c #CE8F57",
"t. c #D78959",
"y. c #C39A5B",
"u. c #C6A852",
"i. c #C5A658",
"p. c #C49B69",
"a. c #DC9966",
"s. c #CE9971",
"d. c #E19D63",
"f. c #C7A568",
"g. c #C7A776",
"h. c #DBA978",
"j. c #D2B072",
"k. c #E3A868",
"l. c #E5B46D",
"z. c #E2AA78",
"x. c #E6B57A",
"c. c #EBC276",
"v. c #968C81",
"b. c #9C9484",
"n. c gray59",
"m. c #9C9C96",
"M. c #A58B83",
"N. c #AA8C83",
"B. c #B18C84",
"V. c #A89886",
"C. c #AB948B",
"Z. c #B49989",
"A. c #AA9D92",
"S. c #B79A93",
"D. c #B49C93",
"F. c #9DAA84",
"G. c #9FB588",
"H. c #AAA58A",
"J. c #B8A587",
"K. c #B3A48B",
"L. c #A4B38B",
"P. c #A7B88C",
"I. c #ADA394",
"U. c #AAA898",
"Y. c #B4A494",
"T. c #B5A994",
"R. c #B9A894",
"E. c #BBA49B",
"W. c #B5AB9B",
"Q. c #BAAD9D",
"!. c #ABB793",
"~. c #ACBC93",
"^. c #BAB49A",
"/. c #B2BD9A",
"(. c #ABA8A3",
"). c #B8ADA2",
"_. c #BCB2A3",
"`. c #BDB7AB",
"'. c #BEB9B1",
"]. c #CA9A84",
"[. c #C6AA86",
"{. c #DCAA85",
"}. c #CCB789",
"|. c #D4B589",
" X c #C5AA98",
".X c #C7B699",
"XX c #D7BB96",
"oX c #E5B887",
"OX c #E2B48E",
"+X c #C4ADA3",
"@X c #C3B4A4",
"#X c #C5BAA3",
"$X c #C8B5A8",
"%X c #C4BBAD",
"&X c #CBBCAB",
"*X c #D3BBA8",
"=X c #C3BCB1",
"-X c #CBBEB2",
";X c #D3BFB8",
":X c #AEC096",
">X c #B4C29C",
",X c #B7C39D",
"<X c #BAC5A2",
"1X c #BCC9A5",
"2X c #BCC4A8",
"3X c #CFC194",
"4X c #D9C49C",
"5X c #EAC48C",
"6X c #E9C697",
"7X c #C7C6AB",
"8X c #D9C6A8",
"9X c #CCC3B4",
"0X c #CCC7B7",
"qX c #D7C7B7",
"wX c #D3CBB5",
"eX c #D3CBBC",
"rX c #CCD0B2",
"tX c #D9D2BD",
"yX c #E6C9A5",
"uX c #E2CCAC",
"iX c #E4CEB4",
"pX c #E5D4BB",
"aX c #E9D6B8",
"sX c #F0D4B2",
"dX c #D5CDC2",
"fX c #DBCEC4",
"gX c #DBD3C4",
"hX c #D8D4C4",
"jX c #DDD5CA",
"kX c #DEDACC",
"lX c #DEDCD1",
"zX c #E1CDC0",
"xX c #E3D8C5",
"cX c #ECDBC4",
"vX c #E2DBCD",
"bX c #EBDECA",
"nX c #F3DDC4",
"mX c #F2DEC9",
"MX c #E4DDD2",
"NX c #EBDED0",
"BX c #DFE0D6",
"VX c #EAE1C9",
"CX c #EBE2CC",
"ZX c #F5E2C8",
"AX c #F3E2CC",
"SX c #ECE4D2",
"DX c #E7E4D8",
"FX c #E5E4DC",
"GX c #F3E5D3",
"HX c #F4E9D5",
"JX c #F5EBDA",
"KX c #F8EAD8",
"LX c #F7F1DF",
"PX c #ECEAE2",
"IX c #FBF4E4",
"UX c #FBF5EB",
/* pixels */
"n.n.n.n.n.n.n.n.n.n.n.n.n.n.n.n.n.n.n.n.n.n.n.n.n.n.n.n.n.n.n.n.n.n.n.n.n.n.n.n.n.n.n.n.n.n.n.n.n.n.n.n.n.n.n.n.n.n.n.n.n.n.n.n.n.n.n.n.n.n.n.n.n.n.n.n.n.n.n.n.n.n.n.n.n.n.n.n.",
"n.n.n.n.n.n.n.n.n.n.n.n.n.n.n.n.n.n.n.n.n.n.n.n.n.n.n.n.n.n.n.n.n.n.n.n.n.n.n.n.n.n.n.n.n.n.n.n.n.n.n.n.n.n.n.n.n.n.n.n.n.n.n.n.n.n.n.n.n.n.n.n.n.n.n.n.n.n.n.n.n.n.n.n.n.n.n.n.",
"n.n.M.vXW.g x 7 s e w g x x c n n N N N n N A V N A C A ) Z V A b.U.9XhXhXkXkXjXkXjXjXfXhXfXhXhXhXgXjXjXkXjXfXdXdXhXvXDXSXwX#X#X_.`.-XhXhXfXhXfXdXjXlXdXdXgXvXkXkXvXjXvXjXjXvX'.",
"n.n.V.kX9Xv.d h 7 w 7 d g k h x x n n n n A F.V A n N Z _ =.!.2X0XrXlXhXhXhXgXhXgXgXjXvXjXjXjXfXhXhXdXfXdXdXfXvXMXvXfXdXhXjXwX.XW.9XhXhXhXjXjXfXdX=XMXDXjXfXfXMXvXvXMXvXMXlXjX'.",
"n.n.I.jX7XgXx x x w 1 s h k g k k n n M g -.>X-.1.b.,.b./.eXdXrXrX7X0X2XeXkXvXvXMXNXMXMXMXMXMXMXvXvXvXvXjXgXdXdXdXkXvXDXvXkXdXU._.dXtXdXfXdXdXdX=XdXkXDXDXMXhXjXMXMXNXMXMXjXjX'.",
"n.n.T.gX7XHX7Xd n n g w f k g n n g g | | 1.1XF.F.,X1X1X1X7X1X1X1X2X1X1XjXvXvXDXMXMXMXMXMXMXvXMXMXvXMXMXvXMXvXvXjXdXqX0XeXjXMXDXdX%X%X0XeXdX0X%XdXkXjXjXFXNXMXjXfXkXjXhXfXdXdX(.",
"n.n._.gX9XAXHX^.e c n n g g g g -.| M h F.!.2XG.1.G./.<X<X1X1X<X1X2X>X2X0X2XrX0XDXJXJXSXvXxXvXzXtXMXNXNXMXvXvXvXvXvXjXgXeX9X=XdXMXDXdX_._.=X%XeXjXgXjXvXgXdXMXNXjX9XwXqXwX9X-X(.",
"n.n.`.hXwXAXCXHX_.k g x n n x d x G.F.v.1.>X<XL.q.G.!.<X1X1X<X/.1X1X>X<X<X<X/.rXIXLXPXJXbXaXcXpX8XNXLXJXLXJXvXvXvXvXvXvXjXjXdX-X'.dXMXMX9X).0XjXdXjXvXjXfXdXgXDXDXdX7XwXqXqXqX`.",
"n.n.%XtXtXSXSXCXJX_.k k x x x | b.:X>X:X>X>X:X:X>X>X~.<X7X7X/.!.2X<X>X>X<X/./.SXJXGXHXGXmX;XiXmXJXJXHXHXJXHXGXGXxXqXpXxXvXjXvXvXgX9X%XdXDXjX@X9XhXjXgXjX-XfXvXvXSXdX9XvXCXCXSX=X",
"n.n.-XtXtXHXCXCXGXwX9.Z g x k M -.L.G.:X2X>XP.:X2X>X:X>XrX1X<X!.<X<X<X~.~.P.tXHXbXxXiXxX;X;X+XNXJXSX-X;XvXGXGXGXpX8XqXXX8XqXgXjXjXjXdX7X=XvXMX9X=XeXfX9X9XvXvXvXvXqX%XSXHXSXSX2X",
"n.n.wXeXtXCXCXCXCXpXJ.H.:.A F.G.L.>X!.L.:X>X!.!.~.2X:X:X1X1X>XL./.>X>X:XP.P.AXtX X;X;X;X$X+XE.;XJXHXzX&X X;X;X*XqXiX;X*XJ.3.J.*XpXjXgXjXeX=XfXMXhX=X9XdXkXkXkXvXeX%X%XSXSXSXSX'.",
"n.n.eXrXtXSXCXGXCXAX8Xe.J.L.:X:X,X,X>XG.!.:X~.G.G.1X>X>X1XrX>X/.<X>X~.!.P.7XtXT.S.fX;X+XE.+XE.E.NXJXKXNXqX).).E. X&X$X*XJ.` ! *.e.wXgXjXvXfX9XwXbXgX9XeXvXjXkX0X_.^.0XSXCXSXSX'.",
"n.n.eX0XxXCXCXCXCXCXCX8XJ.P.>X~.:X>X:X:XP.:X~.P.P.:X:X>X<X7X>X,X1X:X~.P.!.~.P.g.S.+X+XS.S.S.(.+XHXKXGXGXJXzX&XqXqX+X@X+XE.C.*.Q ! 3..XtXjXxXeX%X9XjXjX9XdXjXeX).U._.CXSXSXCXSX9X",
"n.n.tX9XxXSXCXCXCXCXVXVX>X>X,X>X:X:X:XP.P.P.P.P.:X~.:X>X/.<X<X<X1X>X~.~.!.G.w.j.0.C.S.C.D.D.D.E.dXNXGXGXGXGXGXJXKXcX$X+X XE.N.[ W +.@.[.uXjXhX7X%X9XjXjX9X0X_.U.I.hXHXCXSXCXSX'.",
"n.n.hX9XxXCXVXCXCXCXtX/.,X,X<X1X1X:XP.:XP.P.!.P.P.:X>X/././.!.<X1X>X:X~.L.F.q.P.0.M.N.B.C.C.S.S.E.*XqX;XcXGXAXbXcXcXzX@XE.Y.C.6.*...$.uXVXuXaXtX`.#X%XtXjX%XI.U.`.SXCXSXCXCXSX'.",
"n.n.tX9XcXCXCXAXCXCXwX7X,X>X>X>X:X:XG.P.P.:X!.P.P.:X<X<XL.F.G.,X1X>X~.!.L.F.q.c.0.M.M.M.C.C.S.D.E.).D.C.S.*X;X*X$X$X&X+XE.Z.C.>.8.3.5.VXLXj.3XpX9X#X`.%XfXjX`.A.gXGXCXCXCXCXCX2X",
"n.n.gX&XcXVXCXVXCXtX9X7X7X:X~.~.P.L.q.P.:X:X>X,X!.~.1X1X!.q.F./.3X~.P.L.q.q.g.x.g.>.M.M.N.M.B.C.D.S.D.C.M.N.).).+X+X).).S.C.>.>.*.4.5.f.j.j.aX6X8X7X<X_.%XgXhX_.kXCXCXCXSXvXSX2X",
"n.n.hX7XVXCXbXCXgX9X7X,X:X:X/.~.:XP.P.P.q.:X:X>X>X<X>X1X<XL.1.F.L.P.P.L.1.:.5.p.5.{ [ { [ M.M.N.N.C.v.v.v.v.C.S.C.S.S.S.S.N.;.] [ +.3.#.#.w.aXHX4X4X_._.).%XhXwXrXCXCXCXCXCXCX'.",
"n.n.hX&XVXVXVXbX9XwX^.L.L././.P.P.q.P.q.q.q.q.q.P.~.!.P.<X!.F.1.1.J.J.9.4.8.C.3.^ ^ ` / / ` 7.0.N.7./ / / ] M.E.;XS.N.B.7.7.7.N.N.6.^ 3.5.#.}.UXGXj..X^.W.Q.9XhX9XgXSXCXCXVXCX'.",
"n.n.tX7XbXbXCXwXeXeX%XeXwX7XL.q.q.q.q.P.<X7X`.,X'.2X2X`.2X2X:XL.8.9.4.3.*.6.S.B.] ` ! { / ` OXyXXXB.$XfXqX$XZ.NXIXNXqX;X+XZ.7.S. XS. X0.3.o.$.4X4Xi.g.Q.T.W.).eXtX0XVXCXCXCXCX'.",
"n.n.eX#XbXVXtX9XhX9X9XdX7Xq.%...&.E.dXlXBXDXFXJXPXPXPXPXPXPXFXFXDXkXhXqXe.6.D.Z.7.' / ^ W {.6X6X6X6XKXIXUXIXHXHXJXKXLXKXHXAX$X7.B.S.).S.4.+.X.@. .uXJX}.U.U.).@XtX0XhXCXVXVXVX'.",
"n.n.eXH.tXbX9XwXwX%XeXeX`...R J V.MXdXjXkXvXkXkXjXlXMXMXkXlXlXlXDXFXPXFXuX5.S.D.7.{ ` 4.s.z.oXz.z.oXyXsXaXKXIXLXNXcXnXcXHXKXAX*XM.B.N.B.B.3.^ ^ o.3XVXe.K.T.U.^.wXfXwXVXVXkXVX'.",
"n.n.9X8.R.wX9XtX=X9XeXqXH.K +.8.).fX=X0XdXdXjXjXjXjXkXkXkXkXkXkXjXkXjX8Xx.i.0.S.] { 4.oXoXz.x.5XoXoXoXoXx.sXGXKXGXiX4XyXaXGXmXpXN.[ 7.M.M.7.{ R X.X.X.#.J.I.U.W._.fXeXhXDXVXCX'.",
"n.n.7X8.e.T.qX9X@X9XwXR.J o.j.3X7X9X0XdX0XdXdXdXjXvXfXdXhXfXhXhXdX8XXXf.p.5.@.{ { ` s.oXx.x.6X6X5X5XoXoXz.{.nXZXnXmXiXiXAXmXnX*X{ B.[ [ [ [ / ` +.X.+.+.0.K.T.T.Q.9XgXwXVXVXVX'.",
"n.n.^.:.9.Q.wX_.&XqX&X+.X.y.i.f.[.%XW.I.#XeXeXeXgXeX_.Y.T.T.[.R.e.#.o.X.X.@.+.^ 3.{ p.z.z.{.6X6XoXoXoX{.d.{.mXiX X$X*XnXAXmXnXB.7.S.S.] ] ] / m ! ! +.+.+.Z.I.Y.Q.`.gXeXgXVXVX`.",
"n.n.2.9.8.7X9X^.9X9X[.o.X.X.+.E m m B B ( 0.}.3X}.}.g.e.5.@.O.o.o.5.J.@XqX|.p.! W ! ^ s.z.oX6XoXoXoXoXz.a.OXGX+XB.S.E.+XmXmXnXZ.{ 7.S.B./ / ] C E +.R R R 9.K.U.W.@XgXtXtXCXbX=X",
"n.n.3.:.V.9X#X@XwX.X#.o.~ Y g c n m N Z ( Z 5.j.j.j.f.O.@.0..X-XjXNXSXxXqX5.5.9.E.$X&X&XOXOXoXoX5XoX{.d.h.nXGXS.S.S.E.E.*XmXmX X/ ] N.S.] z / z E ! Y Y Y 3.K.I.W._.dXjXtXVXVX'.",
"n.n.4.q.Q.9XQ.#X9X[.y.#.W d ] ' f k m ' ;.Z ( w.w.f.#.o..XbXvXvXxXqXXX#.X.[.qXvXMXMXNXMXiXOXOXOXoXx.{.s.a.nXzXB.B.{ { S.S.zXKX*X] ] ] B.7./ z / W Y b Y Y *.K.T.W.^.9XjXeXvXbX`.",
"n.n..X#X.X%XW.%X7X3.K R j k ).' c ' ' >.<.;.( 5.f.#.#.+.#.g.f.f.f.y.X.+.*XvXkXfXjXjXjXvXiX{.{.OX{.{.{.a.s.mXS.[ M.7.] 7.{  XGXGX*X] { ] 7./ m Q Y l Y a T ! J.K.W.).@XgXtXjXbX`.",
"n.n.xX^.^.@XT.%X.X! J b j A.;XA.).$X' ' M.;._ _ Q n c b b L X.X.R R  XfXDXdXfXeXyXyXqXfX{.{.OXOXyXOX{.{.sXKXS.] 7.] ] ] 7.] zXKXKX*X[ 7.7.{ / E Y Y W 3.0.8X.X^.Q.^._.hXdXhXVX`.",
"n.n.rXH.@XQ.T.7X.XT T V.$XdXdX;XvX)./ ' ;.;.=.A M M A N n k j Y X.XXDXjXhXhX0XyXsX6X6X|.OXyXOXzXNXJXmXmXJXKX-X/ ] ] [ 7.7.[ qXKXGXKX+X[ M.M.` E W T 0.uXpXUXpX.X.X)._.hXhXI.tX=X",
"n.n.M %.#XT.T.&XR.L T V.A.@XfXfX;X).v.=.;.,.%.A C A W.Z j x j j #.XXqX&X.X.X XoX6XoXOXoXsXsXyXyXmXKXIXKXGXJXsX] / ] [ 7.7.{ *XmXAXAXzXC.C.B.;._ ....}.aX8XpX3X X^._.^.dXhXv.b.U.",
"n.n.& =.#XT.T.&XK.L R l v.9X-X;Xb.<.,.,.v.,.=.' ) ).;X' C C m x Y #.y.#.#.@.y.z.oXoXh.oX6X6XOXoXsXHXHXGXGXKXZX8XZ.` ] ] ] M.D.8XaXGXmXE.C.S.>.] 3.+.4XCXuXaX8X[.^._._.tXeXb.' v.",
"n.n.1 -.#XI.T.&XJ.J ! ( A.A.A.)._ ,.v.v.b.,.=.).dXfX-X$XeX$XC m N +.#.@.X.y.h.oXz.h.oXoXoXoXoX{.8XAXHXGXGXHXGXiXuXJ./ ` >.C.N.[.iXbXmX+XD.D.M.>.6.3.tXLXVXAX9XJ.^.^._.tX9X=.A v.",
"n.n.1 ,.#XT.R.7XJ.D T B C C C.b.=.v.b.b.,.,.v.v.).fX;XdX%X' C N N ! o.X.~ a.z.z.k.oX5XoXoX{.oXh.4XpXAXGXHXGXaX8XyX8X>._ M.C.C.Z.8XmXmX+XY.S.7.,.>.[.GXHXHXcX8X.XQ.^._.fX=XA V v.",
"n.n.< -..XT.W.7X9.u J E k C ' ' =.,.,.,.,.-.' I.fXfXfX=XA.Z ) ( m ! @.y.r.t.d.d.d.x.5Xz.x.oXz.z.|.uXuXuXcXcXiXiXuXyX X;.M.S.Z.0.|.cXcX+XE.Y.C.<.6.iXLXHXHXAXiXuX@XE._.tX).V V A ",
"n.n.1 ' .XT.T.#X0.9 a W m x N ( ' =.;.-.-.' ) U.).V.fXA.,.' Z Z m R j.x.a.a.t.t.a.z.z.x.x.z.a.k.p.XXuX8XuX8XuXuXuX4XXXM.A.D.D.D.Z.8XmX$XE.Y.C.9.e.qXLXGXGXHXaX8X.XI.@XtXA.x x A ",
"n.n.w C ^.T.Z.#XH.y p J W b c C A ) ' ' ' ' ' A Z ' ).v.( Z m c m +.oXx.a.t.t.t.a.z.x.x.x.d.p.r.#.p.XXyX8XuXuXuXyX8X.XC.Y.E.).).Y.E.bX*XE.Y.M.Z.e.8XHXGXSXGXpXXXT.V.@X9X-.h h A ",
"n.n.1 n T.R.2.^.R.i y i F E m m C Z ' ' ' ' =.-.,.) =.' ) B x x ! ~ z.k.t.a.t.r.a.a.a.z.z.a.t.r.@.p.p.|.XX4XyX8X4X4X XY.).E.S.).E.Y.qX+XY.D.M.V.4.[.bXHXHXVX4X.XV.b.#X$XV h g A ",
"n.n.s d H.R.<.V. XY y a U a Y E N V A.A.) ' ) ) -.,.' Z B n c &.+.#.a.a.l.x.l.a.} t.t.d.k.t.t.r.z.z.s.5.g.{.XXXXXX.XS.E.E.E.E.S.E.D.C.Y.D.C.M.9.&.R.pXxXHXuX|.[.v.b.&XW.h d s V ",
"n.n.s s b.^.8.&.[...u J T Y E B c C _.`.' A m.b.,.V.v.C _ *.3.+.+.h.k.a.c.c.k.l.t.t.} a.k.t.t.d.x.z.z.].0.p.p.{.|.C.N.E.D.Y.Y.D.Y.D.M.V.V.6.V.6.3.qXGXcXpX8X|.J.-.V.#Xb.w s s V ",
"n.n.s d =.T.V.( K.9.! XXR T ! m C N +X%XD.-X0XV.,.V.b.) Q +.! R 5.z.d.k.l.k.k.k.d.d.k.k.d.l.l.k.z.z.t.].$XS.4.p.p.0.>.C.D.D.D.Y.D.V.M.9.9.N.6.Z.vXGXJXHXiX|.}.<.=.T.^.N < s 1 V ",
"n.n.s s M K.K.=.;.J.R 5.R R W m j c -XdXdXgXA.) %.,.,.Z Q T ! +.{ a.t.r.d.k.k.k.k.x.x.k.l.c.l.k.k.d.t.7.+X;XS.4.4.f.0.v.C.D.S.D.A.M.M.9.6.*.V.bXKXJXGXHXcXXX8.) ;.^.V.s w 1 < V ",
"n.n.s h h 8.R.2._ 0.! 0 H L Q j ' @XqX9XdXfX9X=XU.-.) Z *.+.+.@.^ ^ ^ W a.k.k.d.t.t.d.t.k.l.d.k.k.t.} { Z.+X+XN.[ 4.s.6.;.C.C.D.C.>.7.6.3._ qXIXLXJXGXGXcX[.%.%.V.^.) < 1 < < h ",
"n.n.s h g %.^.H.&.&.3.Y 0.+.R b ,.A.A.W.;XvX).)._.=.N *.#.w.#.X.I ~ ! Y r.a.t.} t.} } t.d.k.d.k.k.t.} { M.M.M.C.[ ` 3.0.>.;.>.M.M.<.>.9.*.M.GXJXJXGXGXAXsX[.;.) K.Z.g 1 1 1 > V ",
"n.n.s g h c J.R.8.%.&.R KXiXS W j f ) _.-X9XA.A ,.^.0XhXkXxXkXhXXX$.o.T R r.~ o.r.OX{.t.d.d.d.d.d.} } E / { { M.>.3.3.6.9.7.<.>.>.>.9.9.` C.GXHXSXGXGXaX|.Z.( ,.T.%.s 1 < < < h ",
"n.n.s s n d 2..XK.&.&.R 0.0.J Y T b ' ).,.%XA.) rXPXLXFXPXBXPXPXPXkXf.H D u G I X.uXaX6Xt.t.t.} } } } 9 f z E / ` >.3.*.3.9.Z.9.8.0.9.3.&.K.GXJXHXGXnXXXe.=.) H.V.g s < > < ; n ",
"n.n.s s h g Z R.^.8.Q _ H D G T R R 3.6.( A.>.K.DXFXBXkXBXkXPXBXlXkXg.7X&X4.R S 0.AXAXaX} } } } } s.yX;XC.$X$XM.` *.Q ` 3.6.0.0.0.0.6.3.Z.bXJXbXcXiXyX[.;.Z <.K.) < s > > < ; n ",
"n.n.s w w N %.,..XK.&.Q Q +.XX#. .X.......Q ..wXSXFXBXkXlXlXFXBXVX3X7XPXPXSXw.0 zXKXmXmX].} { { { iXmXKXKXKXLXKXvXiX X` :.6.0.0.0.9.0.4.*XGXpXuX8X|.}.9.%.) H.V.s < s ; > > ; h ",
"n.n.w w w b.K.C V.K.8.( Q @.aXtXw.X.X.R R Y H.kXDXFXkXkXkXBXPXlXtX}.gXFXPXDX..4.GXKXmXzX].{ { / E *XmXGXGXGXGXKXIXKXmX6.*.9.0.Z.0.0.Z.g.8XpXuXyX4X|.0.&.Z 2.K.N * w w ; ; ; ; V ",
"n.n.w > A R.R.' x 8.K.*.Q R }.UXaXO.+.......rXBXBXDXxXkXkXPXBXlX3X4XlXBXPX7XI cXKXNXNXzXB.B./ z z .XnXGXKXGXGXGXGXAXaX0.3.9.0.J.0.0.J.].iXiX8X4X}.5.9.( :.K.=., = s < - ; ; ; h ",
"n.n.< g Z.J.H.8.x b 9.V.%.B 5.4Xg.O.$.$.O.g.tXBXFXlXkXkXkXPXBX4X}.hXBXPXBX5.#.LXKXmXzXOX{ / U 8 / uXiXiXaXAXGXGXAXAXaX0.*.0.0.Z.Z.[.g.[.yXXX}.8XaX0.&.&.T.8.f - ; w > - * - * h ",
"n.n.> ,.J.Z.8.K.V.g M 9.9.Q b K K  .$.$.$.3XrXVXlXxXkXtXCXBX9Xf.7XtXtXDX8X .g.IXKXmXzX{ / U z 8 ].iX8XXX4XiXAXGXbXZXaXg.9.4.Z.[.[.[.[.[.J.g.VXaX[.:.&.K.V.x w % > s = = * * $ h ",
"n.n.) K.H.8.K..X2.M t M :.9.Z b J K X.$.$.j.rXrXtXrXtXrXtXrX$.w.rXtXrXrXj. .4XIXGXmXsX/ U z z 8  XuX6X*XXXXX4XaXnXmXsX|.|.[.[.[.[.[.[.0.4.e.wXXX*.:.K.K.m t 1 $ 1 1 * * $ * $ h ",
"n.n.U.^.8.K.^.;.x %.%.q b 2.:.M j b X.O.$.$.j.3X3XrX7X8X3X3Xf.i.3XrX8Xj.O. .yXKXmXnXyXU p z 8 p |.4X|.|.|.g.g.h.XX6XXXj.h.[.g.[.[.[.g.9.:.3.9.:.2.J.K.B d d @ ; 1 > * = $ $ & h ",
"n.n.H.&X_.T.=.j _ 8.:.M q b :.:.M t b K b O.u.u.u.i.u.u.$.#.O.i.$.j.j.$.r. .XXAXmXnXiXz 4 t 8 z |.|.g.g.p.g.s.#.@.#.p.g.p.p.g.[.|.[.6.*.&.6.2.V.^.J.M f n , $ > w - = * $ * + h ",
"n.n.:.H.0X,.t Z :.:.*.H.1.6 j ;.*.B j b J X.$.$.O.u. .u.O.O.O.$.$.u.O.O. .P j.AXGXnXsXz 4 4 8 8 @.s.p.f.f.p.o.@.@.@.5.p.p.p.0.[.g.0.6.3.:.2.I..XZ.N g m x $ - 1 < * = * & $ + h ",
"n.n.B m K.#XI.*.*.*.T.^.%.j g p %.8._ b b a J J K o.j.#.o.X.o.O.O.O.o. .K H #.yXaXZXsX/ # 8 8 9 F I X.@.o.X.o.@.o.@.@.5.@.5.5.4.9.4.3.2.V.Q._.C.N k m ( 6 $ < s ; * % $ @ * + h ",
"n.n.d t B T.tX^.:.T.W.Z p %.b.M t M :.&.M i i i 0 4.IXiXS  .o.o. .O. .K H D R j.j.yXsX4.# 4 4 z F F J L G F J J T T T T R ! ! ! 3.*.;.I..X^.,.m n N >.x o > 1 1 * * * $ $ * $ h ",
"n.n.O q t M K.tX0X^.Z p %.8.8.8.%.t j %.*._ m i u R pXaXj.I  . . . .L K H H H p.s.p.p.y.8 5 y u a G G F F a a a F a J J Y W Q W Q 2.W..XT.=.N N B 8.) O ; > s - * * $ $ $ * $ h ",
"n.n.O O w t B T.wX,.r %.2.:.:.:.:.*.m t m &.&.Q b a 0 o.[.D H P I I K H D H H I I t.r.~ P u 3 9 u a F F a y i a a a a b J b b ' V.^..XV.) B B ' 8.;., - - w 1 * = * * $ + * * h ",
"n.n.+ o O q t M V._.^.8.&.*.*.*.M b j 6 4 g Q *.:.Q j u 3 y 5 y u D D D D u D D P P P P P G u 9 y u i u y y y y a a a u j B <.K.R.H.;.C N ( <.8.8.e $ : < s = - * $ * + * =   h ",
"n.n.o O . O q e B V.7X#X2...%.j q q q q q > 6 j *.J.9.%.i r r r 5 2 2 3 3 0 u D G u 2 G I I ~ F 9 5 5 9 r 2 r r r r p n %.V.J.8.;.B n C %.8.8.:.k o ; > s ; * * * * $ $ =   A A.",
"n.n.+ . o . O 6 t k M &.%.M r q q 6 : $ , q q 6 q B q.T.9.Q j r q 5 4 4 4 2 2 3 9 3 2 D G P P H 5 5 5 5 # 2 q t g M &.2.9.:._ n g x Z *.8.8.2.g X ; - 1 1 + * * * @ $ =   V `.(.",
"n.n.o O . o o o , q t t t q q > % @ . O $ 6 e q t 6 t C 6.Z.V.&.M j t q 4 4 4 q 5 y y 9 y u a u r y r r r b M %.*.8.:._ m f t k N %.:.6.:.*.g X ; * 1 1 $ * * $ $ * ;   A `.`.(.",
"n.n.:   O . . o . : q 6 1 > $ . o - $ + + O 1 q e t t 6 4 g ) 2.2.:.*._ M b b t i t t t i t j b M M %.%.&.:.:.&.( m f t q t n ( :.:.:.:.%.e X : $ < w $ * $ $ $ $ *   A `.`.$X(.",
"n.n._ q   O o . o . . o O + + $ @ + - $ . O O > e e e t t 4 = , t m Z _ &.&.&.&...%.&.%.%.....1.*.*.*.&.( B b t 7 6 q t c ( &.:.*.*.:.Z ; o - $ 1 w @ $ $ $ + $ *   V `.'.%X'.(.",
"n.n..X*.q X O o . o O o O @ $ + $ @ @ ; > O o o - q q 6 q q t 6 4 : : 6 q p f j j b M b M m b b c j t t q 6 1 q t g N _ *.:.*.&.:.&.k o * - $ < w + @ $ $ + $ *   A `.`.%X'.'.(.",
"n.n..X7X8.r X X O . . o o o O O + @ $ + > 1 * X o $ 1 q 7 6 4 6 q 6 6 , : : : : ; > , : , , , 1 , 6 6 q t f k m Q ` *.&.&.&.&.&.N >   = = * < < O + + + O + &   A `.`.=X=X'.`.m.",
"n.n.7X3X7X9.j $ X o . . o . . . + + O + O - w > O o o = 6 7 4 , , 6 f i r r q q 6 q , q q r t t j j n M Q _ &.*.*.&.&.&.&.&.B e   o = @ - 1 > O + + + O + +   ' `.$X=X'.=X=X-.v "
};
