/* XPM */
static char *result[] = {
/* columns rows colors chars-per-pixel */
"92 84 57 1 ",
"  c #010101",
". c #070807",
"X c #0C0C0C",
"o c #131313",
"O c #181718",
"+ c #1C1C1C",
"@ c #232324",
"# c #282827",
"$ c #2C2C2C",
"% c #333333",
"& c #3B3B3B",
"* c #40403F",
"= c #434343",
"- c #484747",
"; c #484748",
": c #4C4C4C",
"> c #545454",
", c #5C5C5C",
"< c #636363",
"1 c #686867",
"2 c #6C6C6C",
"3 c #747474",
"4 c #7C7C7C",
"5 c #807F80",
"6 c #838383",
"7 c #8B8B8B",
"8 c #8F8F90",
"9 c #949494",
"0 c #9B9B9B",
"q c #9F9FA0",
"w c #A09FA0",
"e c #A3A3A3",
"r c #A8A7A7",
"t c #ABABAB",
"y c #B0AFAF",
"u c #B3B3B3",
"i c #B7B8B7",
"p c #BCBCBC",
"a c #C0BFC0",
"s c #C4C3C4",
"d c #C7C7C8",
"f c #CBCBCB",
"g c #CFD0CF",
"h c #D0D0CF",
"j c #D3D3D3",
"k c #D7D7D8",
"l c #DCDCDC",
"z c #E0DFE0",
"x c #E4E4E4",
"c c #E8E7E7",
"v c #E8E7E8",
"b c #ECECEC",
"n c #EFEFF0",
"m c #F0EFF0",
"M c #F4F4F4",
"N c #F7F7F8",
"B c #FEFEFE",
/* pixels */
"9ppsdsddyyy0659y<*ttppu04&==&>4tapsaafi60aiiaaiiiiuwuuyuyiiyute80480>&&-:;&>0epssr1&&&,6rfff",
"9kjkzclbxiaap05u0 55yfut6 .. @<ejllxzbkedxfgxzgggjatsssasggspu90666,%   oo 9fifvk6  2tllfcvz",
"9ssfllylfgcdagdea9 .#17re% XX.:7fkllzxxdpcxxddffjzaypsasuppyyt76711# XX.. 6gzgte2.4dukBcklzl",
"977slsrfdxMxssgkgk  + <7s, o  $2ikkjjlxx0jxxaalljzfuussppqq0tyy72-&X.  O44siiq,66avbjbbbczcc",
"9;;3piiplcxlkbludj33 * :e1 X   :8hfzzgjzs3ccllaalbkupuuut7753er0&#   ++ sst438ls0cMbbMbsjxlk",
"9$$%,0ealzlagbldlgss: #%94 X X &6pjllalzl9jkkkuuhbkudeeqt11<&*>,O X O  ,77;7uNBppzbbvbxsllgl",
"9@@X&20ygjaujljxMMlls4% >9.  . .44pssflgkappljllszcid8887**>:*@.     ++0<<ubMxlbxbbclzzlljfk",
"9XXXo>44tspakjbbcbvbblpu131 o . >18fghldkjipjjllzdbgp66:%+@#ooXX  XX#::2aavbnllMlxcljjgdsfff",
"989 oX*<>9idgdjzxxxxlapye97O .   :6hgfjfffpippklclllirr*+oo      .  <44eccxzxbkxllljggfssffj",
"9jj0 +  &35ugdshzkkjgdq7e77: X o ,3ppfjdhasappzzbllceii9$++     .  76eeivbzxzkklgdffggfffffl",
"9aple  @ =>,0paskksssdtte99> o . @<44pjglplksszzvbfbpuu92  .X   X ,p0ppfllkkffjgaassdfsddfjj",
"9ppslu  @  %-,90pissipiappu0% X . %430fslpllsszxcbllb78uq,>  oO .+5ruffgfgjdsdsiuipauppuusf0",
"9ssafxs@ $ X#:1,87rrrpfffjpt4 O  . 2240sj9jjfjzlvbbgcfdsf551,.  &-46pffagffadaiyitr9940uuy09",
"9ssssfcj> $  +#:,:<<49tsffa0u% X  X=-43uptjjllkkvbMlkllkl892>>-:>:32pddsiiagyte9y9721*4009jp",
"9dffffgxz4 O+  O%&;;$*>79etyi3 O  X#@,698pjjkkssbbMxsssxntr934>>,,3,tppupiue2973333<,elppvBr",
"9ffffggglx0  #X  O#$;&,>>>4due+    XXo164tppkkrrMbNxfMMMnfg7622,122,,5660053142<<<,12lBBBBBs",
"0jgjjjjjjlbs& @@  Xo$*&&&,6je76 @     #&6trraayybbNczMNMNffe093<4662#&&:::,,>=>:<<700BBBBBBN",
"9jkklklkkklnz7  #    O#+&&3fe40: O   . $48qqeefgbMNzvMmNNkkdt0994602O+O#%$-&.=>>66fuiBBBBBBB",
"9llllzllllllbns* O      o&3se<13 .X     @<6676rrzMBlbbvNBcccsrw9700, OOo%$+$**,rssiddBBBBBBB",
"9llxzzzzlzxxlcMc0 @+. .. #9se1=2< X    . $332300bNBzvbMBNBBBxu00epr7 .. oO@&  afffiBNBBBBBBB",
"9zzxxxxcxxxxxxxbNh   X  . 0sy3;+,o      X @@1<ipBMBxkMNBcBBNMft0isr9...ooX#%77ryttMBBBBBBBBB",
"9ccccbccvccxccccvNip$ Xo.oepi<%O#o      .   55jjbBBBsBBBjxxcBbsipfu0#  +@#>4assNccBBBBBBBBBB",
"9bbBMbbbbMNNbbbbvmfg%%O   rye3=$%o     ...&&qeggnnBBzBBbfllBBflsffuw-  XO+9ptryBBBBBBBBBBBBB",
"91<dBBNBBcxbMBNnNB  -><3% tpe7&%@OX       09trjjbbBblBBlvkkBciMdlk03>  O<,i0330BBBBBBBBBBBBB",
"9=- 5lBl4%&>,0xBBs&&,,3399ts03%$$$X@@ o$*<rtgfgdcMbbxbbjMhgBflNfbg9y,   ap24674BBBBBBBBBBBBB",
"965* %4=>56,% %y0 ,<243,5uipi9;O%$O%&%<3,6fdrrrrlNlcxgfNzzxjjvvjNyri2  <ee3276,vBBBBBBBBBBBB",
"922=>@2euur7<%.  ;33270:= 0ssu:@&X ==%>230jh88llpjbbxMNBbcc9zcczlpt7,#$s  -&227lBBBBBBBBBBBB",
"9870:6aaay82#@%%<4336e4 <%7sps,%;  ==,447ujkiuccbtzcvBBMBbvfMbNijl7r2779XXOX&&pcBBBBBBBBBBBB",
"9ss<4dgsat4-+O#@4999e7$ &>3ppa4=&&#-=,64rgbbiiccBsambBBbBffMBBbfNa0pe44 &&%   iNBBBBBBBBBBBB",
"9114dgdds0>%*%,5e9ii0>  #;3pse3<+&%::369izbbddMMcaiujBNmBgfBBBfbMitp0=-+#$ X+OsBBBBBBBBBBBBB",
"054dggsds2$&&16riett,X X +2pie32$ @$$280sbklkkjhzaj:sNNMBbbBBMgBvp0y9>>:@@X+  MBBBBBBBBBBBBB",
"9sskjjfki>=:,5tpps11 X   #,ppu133$%&&7urlbaajjbbNsgrvBBBNBNBBjsbga690>:e&&=@  BBBBBBBBBBBBBB",
"9kjjlalc8;%3eupsss%%oX OXO+ipu7>3=O>>0frcMppssccM9gscxcMBNNBblawbp39832e,,##:>BBBBBBBBBBBBBB",
"9jjlgyNf%#4yppsssr##  o>O  ep9r2,,%1<plezMxxjkssg%bkllkbNBBBkkfkb96p956233&*  BBBBBBBBBBBBBB",
"9llxfvb3X2ppsssss7XX o=;.O 7ie0764=34dkajcbbbmffieckfBBBlBBxyldfu4906<<+12>&  BBBBBBBBBBBBBB",
"9xzzxBi*3usssasse3   #>:-  2e8r779100tfjimffMbtttcxdsBNBlBBidjtr3rr<7++ 22&#  BBBBBBBBBBBBBB",
"9zzzBx22yspapssu4>oo+ >*@o ;9396772zzepbuvddbbiprkbfjBBBxjjtrr049pe2<  %22%,$%BBBBBBBBBBBBBB",
"9zznBe:9spapssie2 %%*$,>*X o47e4753ddu1efxmmBNppuyBxrNNcysd,0gr8pf47   $,,1<::BBBBBBBBBBBBBB",
"9zzBz35iappsfpe6% <<1:62%X  33ps533770%&0rNNBBsdjtims77e7jjr70azzt1t XX<++5>99BBBBBBBBBBBBBB",
"9bbBu5upiafffr9< *22,;3&X.. ><rf9,%xcxd02-dffjcxlcy32iixNBBd> 7at4<e 77p::21jjBBBBBBBBBBBBBB",
"9BNbttaudgggg742@2::>:* .   #+0s04 xcBBBcr3377ffhja>&ggnbuu: 8xlx030>999ui>4NNBBBBBBBBBBBBBf",
"9NNktiigldhjd64:@<oX=$ X $6& <9s634>>acMva11ppuudke:7#@12  -2ibzj0432-;<66,pBBBBBBBBBBBBBBlt",
"9MMpupjgfzkji3, +=XX  .X ;e> 79f014   %1: ui00bbNBa <&&.&99ybpczp7%,4rr&  +lBBBBBBBBBBBBBN9i",
"9cxraklfjljje,> O Xo X X ,y> 9ep02<rr8>%=322eeBBBBy>q00lzxcdblpde,<4 99pXX#bBBBBBBBBBBBBBf6s",
"9ddtllxzzzkg0:%#+O  X  =1=04 7etd4%iieviresa33NNNBy2ctrMMcxaxbp53=3<7&%i%%9BBBBBBBBBBBBBB07s",
"9ytkzxxzzzjg0>o- .XX #O>7:>% ,uuj6&eeibsr7BB44ggkle9gffncxxgsdt4 79$tss0>:NBBBBBBBBBBBBBBe1s",
"0jjcxcbcxxkjr-%%    $=3@46 $O t0y0255sxpgaxx66NNBk90uddnzxxzpae>2i>:rllsppBBBBBBBBBBBBBBBy;p",
"9zzxbbbccckk0 +O o44>2e1<9:+% 4yqs3rrskyzalz66BBBBr7asszdlljar0,7373,spfBBBBBBBBBBBBBBBBBe2f",
"9zzbMmcbmbll9 + X499-=3,:<#;:XOr8p9ttssulsjk77BBBBptpttfjlzf99520>a4 ,,tBBBBBBBBBBBBBBBBB36k",
"9xzMNMmMcbllt.@#:3,>7>  = ,7&  290066ijsdsfg0qBBBBsrpuiukllt78=356u4%.X1BBBBBBBBBBBBBBBxx 9l",
"9xxMMMMMmbzli X%7f00ps<- %e7 X =r0t449jpffss99ccbBlufssagaa075$014p4;,<,NNBBBBBBBBBBBBltt tN",
"9bnNMMMMmnzlr %3kt99fu6%#9te$ .&7eu336ssjkfs77MMjlxefsdtattt428t> 693977vvBBBBBBBBBBBv 44 sx",
"9MmNNNNmnbzl0 :if&  94< <efeX @$10t331iidfsa77BBBkjpaty90007>,y6% 2f0tyeNNBBBBBBBBBBBu ,,Olt",
"9MmBNNNNnbcz9&<i4 &=e, >0fxt  ->,6te>>00yyii33BBBBp9t7704776,4i-o -f0uu6BBBBBBBBBBBbb:X;:4v0",
"0MMBBNNNMncz8*00 %,,i$ 6vf97>1,23>re2233ee99,,BBBv6>e7702664,08 O #t9tt4BBBBBBBBBBcip%&++tlj",
"9MNBBNBBNMvcrX4, ,654 4tj0= 269f7 u999>:998911uuj:=46<<331<74r&:X$,<liusBBBBBBBNxxpxx,@  lff",
"9NNBBBBBBNnxp % ;=89-%t039> 0lcj6 i09822337790   *:;3&& 499tr7#, 32 fffBq09ivv4e;;sbb6,12gtf",
"9NMBBBMNBmMna O 1764#793>%=0bvfr%&7p9933@+,>11,,o&<4qee6,90r0%-X,6; fBBr  &744 @::cllsurr0el",
"9NNBBBMbxgjMd  X=222%3:&#1pnbz89%$-0ap<1  <1$$$%36p9 44za90r31*40&  Blki  75>,+%%%jcxt0xx2jl",
"9NMBBBBbkjizj   >+33 <9e30bMk0:;21X;rr55>>uu%%43izu@   ikaa6ey384+tcc99l..62333:::qvv00MMtlj",
"9NNBBBBBxxfsk  =%<  :u074kbt#&@#>>& req044ee  =-ulpj&  ,x556pr97>9sp >>ejg4y12q*OO7ssqjssdhk",
"9BMBBBBBMckrg: % t  84+=tla # 5666# @#ttppss::23>bcsO33%y66als03&# %X  9cc54990:%%*qepcqeklc",
"9NNBBBBBBbcye<  >766<  1gf@@ 267ss +  fdee7722ut7sMt 7766eednbu3O 2&X  3uyj1229=--,ttjj,,hlz",
"9MMBBBBBBMbj62 @9%,, %$9v>  ,6OOuio oo446633664469Bk<66y=rrfxz8< 64 =  *uuilrr:6,,1ipc077glz",
"9MMBBBBNBNbbw1 <4   ,43x0  >0 ,,00O.    pp99994436ff6tt9.99llbi>%2O$>$$ sd 4pp64,,4sss3spjlc",
"9MMBNBBBNBMMd> 2&-rri6sf> =t+&<,;-  @@::rr22rr883>37978=&uilxl05 @<3311 aa<   f6  3ll&eppskx",
"9mmNMBNNNBBNb8 $#=bb88u4@ t6 f77  06OO33@@44ttii6>533770>jjzkdp, >389>>+99,>&&7g662jj6ppplvb",
"9mbNMNNNNMBBNl* @ lze0t= 3u fz21==k5XX44=-00eeppy39r4uufekjxkp6%2<,6%::4771845:3ee6ee9usscMN",
"9bcNNMNNNNBBMBt. 2>;6ue= t&6l6  99p*@@77,,66uukjfeiy1jkdfxxxbd6-3$214%%2667r66%:990&&6tllcmN",
"9xxMMNMMNNMBNbMe&6,3 71 17$ji7ee999 33rt>,rr66ttq596tlljfbbvvvu@%: o>22%<,t5ew9ejj133upffbBB",
"9zzmMMNNMMMBb0Mk8@36>;3 1%7tifsp,>  55xz>>fjrr2230tddzldkbbbbli,;:3r 225>>9077sdii7rtflxzbbN",
"9llbMMMMMMmNx4x60+1,1>3 @=6wp<    + erxc>>uujjsdfffssgftyMMvcle#2707466388ee09fctt0iidklzmNN",
"9jjcMMMmmMmMx3j30o39&22  7pp3 XX32:+aadf,,99fdssssssseea0bbMxk8,r956t44211assdcl44rytflccBMp",
"9jhxMMMmMnMNzkx1t6 2 7%  ul4  6611>%aadd**66ppfdddsdy<,siiibxkisfpte,32400jklzk711eppbbMMj95",
"9fdlcMMmMmcM2gc96f- 60 # is  .77##%$77ds  >>00pptryy4  iltteclflxfpi9rtslldzhh7009gcvBBBB00r",
"9ttlzMMmbmcx2gly=ap249  +rq  ,99:; +11yy  :>22675466,  7Nxx0exsefbzfgggdzlls6770pazxxBNcc,33",
"909jlcMbbbnx1hzg,rr6:4+ -e4 @10033,122as$%..:;11<<1,>OO0bfdc3uku0ilnbxxe887399ddggxbbMbpa090",
"933plzzcmxcx2jbc69e39; oo3, +122>>0r  ff##  %%&%:=&%$@#0efflleptre0ivxxq00440edkbbnBBdpppjcN",
"9779kkjzcccc4gMnr6f1,92 =3$ ;297  st  ffoOOO#@&%*#%%#  ,pMMusxie0rr997620eifdsflMMNlle366pbB",
"9jj7skzcxzxb6sMMf,lu#>s7 2= %22279p2  ip$$+O  $%%%@+o:;3tllb4pxxkuiu989pjgkjzzMNbM0<< &66ygb",
"9ccp0jlxxxxbqsMbv,sMi 7jr  oO;$$gg9 Xort  @@X.XX +@..:-31dgMj<0cBcxgsaajbcmxbbzjee098>>22qdN",
"9xxlajjkzxzbapbxN70BNsX7xs X@ 56ss .Xoee++##XX    . o3386ggage:3sbbMxbcMMMmBBNppee244treqikB",
"0ccgtgjjlxzxdpvxMp3NBBg80lr  :erty +  00=&-=XX      .22ad778255,%8pdliupss0tiirttte878tsdMNM",
"9xxkpphgjkkkgjllcj2xNMNf46a0X6ii34X+XX77::>>XXXXXXXXX==9tipy<,544&27i996999<>>2qredffpyaammc"
};
