/* XPM */
static char *result[] = {
/* columns rows colors chars-per-pixel */
"52 60 187 2 ",
"   c #310D0D",
".  c #4E2A24",
"X  c #4E453A",
"o  c #504335",
"O  c #53453A",
"+  c #55493D",
"@  c #594A3D",
"#  c #5B4E42",
"$  c #5D5044",
"%  c #615245",
"&  c #6C5245",
"*  c #655649",
"=  c #66594C",
"-  c #6A5B4E",
";  c #785C4E",
":  c #6D5D51",
">  c #705950",
",  c #6F6254",
"<  c #736356",
"1  c #766957",
"2  c #7B675C",
"3  c #796959",
"4  c #7D6B5D",
"5  c #7F705C",
"6  c #7D6B66",
"7  c #7D7260",
"8  c #836353",
"9  c #876659",
"0  c #906F5D",
"q  c #81735F",
"w  c #8D7B5E",
"e  c #9C715D",
"r  c #826960",
"t  c #936E60",
"y  c #857662",
"u  c #877864",
"i  c #8B7C64",
"p  c #8B736A",
"a  c #8F7E6B",
"s  c #9C7464",
"d  c #9D7668",
"f  c #937C6C",
"g  c #9D7969",
"h  c #8A7772",
"j  c #A77569",
"k  c #A47B6C",
"l  c #AC7B6D",
"z  c #A67D72",
"x  c #AD7E72",
"c  c #94846C",
"v  c #99866D",
"b  c #9A896F",
"n  c #938472",
"m  c #9B8472",
"M  c #958874",
"N  c #9D8C74",
"B  c #91877F",
"V  c #9B8B78",
"C  c #9F917C",
"Z  c #A5826F",
"A  c #A48473",
"S  c #A98575",
"D  c #A18D75",
"F  c #A78678",
"G  c #A18D7A",
"H  c #AB8C7B",
"J  c #B68678",
"K  c #A09077",
"L  c #A3947D",
"P  c #AA937E",
"I  c #A9987E",
"U  c #998E8A",
"Y  c #9E9588",
"T  c gray59",
"R  c #98989C",
"E  c #A48F83",
"W  c #A69580",
"Q  c #AC9584",
"!  c #A59981",
"~  c #AA9B85",
"^  c #AD9F8A",
"/  c #B39585",
"(  c #B09688",
")  c #B49C8B",
"_  c #BC9F8C",
"`  c #A19B92",
"'  c #AFA18A",
"]  c #B2A38C",
"[  c #BCA18E",
"{  c #B6A88F",
"}  c #AAA49E",
"|  c #B4A591",
" . c #BCA492",
".. c #B5A992",
"X. c #BBAC95",
"o. c #B7A59C",
"O. c #BCAD99",
"+. c #BEB19A",
"@. c #9B9DA2",
"#. c #9FA3A5",
"$. c #A5A6AA",
"%. c #A6A8AA",
"&. c #ABACAE",
"*. c #BCAEA5",
"=. c #ACADB1",
"-. c #AFB1B7",
";. c #B3B2B4",
":. c #B9B7B9",
">. c #C09D89",
",. c #C4A28E",
"<. c #C2A593",
"1. c #C8A692",
"2. c #C4A996",
"3. c #CBAB97",
"4. c #C5AB99",
"5. c #CAAE9B",
"6. c #D1AF9A",
"7. c #C3B397",
"8. c #C3B49C",
"9. c #CEB19E",
"0. c #C5B89E",
"q. c #C9B89F",
"w. c #D2B39E",
"e. c #D8B79F",
"r. c #D8B89F",
"t. c #C5B2A2",
"y. c #CCB2A3",
"u. c #C6BAA3",
"i. c #CBBCA3",
"p. c #C7B4AA",
"a. c #C9B6AB",
"s. c #C7B8AE",
"d. c #CDBAAD",
"f. c #D3B5A2",
"g. c #D7B9A5",
"h. c #DCBBA6",
"j. c #D0BAAE",
"k. c #DDBEA9",
"l. c #C7B7B0",
"z. c #CABDB5",
"x. c #E0BFAA",
"c. c #CFC1A7",
"v. c #CFC0A9",
"b. c #D1C2A4",
"n. c #D4C4AB",
"m. c #DEC0AB",
"M. c #CFC1B7",
"N. c #CDC3BF",
"B. c #D7C3B4",
"V. c #D7C8B1",
"C. c #DECDB4",
"Z. c #E1C1AB",
"A. c #E3C8B5",
"S. c #E1CCB6",
"D. c #E1D0B7",
"F. c #E6D6BD",
"G. c #EADABE",
"H. c #CFC7C2",
"J. c #C7C8CC",
"K. c #CACACE",
"L. c #D3CECA",
"P. c #D4D1CE",
"I. c #D9D3CF",
"U. c #C7CAD0",
"Y. c #CCCDD2",
"T. c #CFD0D1",
"R. c #D8D6D7",
"E. c #DCD8D6",
"W. c #E9D3C0",
"Q. c #ECDBC4",
"!. c #EED9C8",
"~. c #F0DFCC",
"^. c #E2DFDD",
"/. c #F2E2CE",
"(. c #E2E2DF",
"). c #F2E4D1",
"_. c #DCDCE2",
"`. c #DFE0E5",
"'. c #E5E3E3",
"]. c #E9E6E4",
"[. c #ECE9E6",
"{. c #E4E5EB",
"}. c #E8E6ED",
"|. c #E7E8EE",
" X c #EDEBEB",
".X c #F1EDEC",
"XX c #ECECF2",
/* pixels */
"T T T T T T T T T T T T T T T T T T T T T T T T T T T T T T T T T T T T T T T T T T T T T T T T T T T T ",
"T T T T T T T T T T T T T T T T T T T T T T T T T T R R T T T T T R T T T T T T T T T T T T T T T T T T ",
"V { M ^ V f i.i.0.b.C.c.n.C.D.D.F.n.8.g.A.Q.~.).S.k.k.j.B.k.k.k.m.j.k.k.m.k.k.k.k.k.k.k.k.k.9.V.Q.Q.Q.Q.",
"- - - * u ~ M L c.i.L I n.S.n.C.d.5.k.F././.).!.x.k.k.k.k.x.k.k.k.m.k.k.k.m.k.k.j.k.k.m.k.m.k.5.v.~.F.G.",
"# : < 1 7 2 * 1 M : a i.i. .+.X.9.k.W.).~.).!.B.k.B.k.k.k.k.k.k.m.k.k.m.m.h.m.h.Z.B.m.m.k.m.n.m.9.n.Q.F.",
"O * : , = # - : O O < 5 5 v ' f.k.C./.).).W.k.k.k.x.k.m.k.k.Z.k.m.k.k.k.h.m.m.m.k.x.k.k.m.k.k.k.m.4.n.G.",
"$ $ # # o * : * * < = o O , 9.m.g.W.).!.A.k.k.k.k.k.k.k.k.k.k.k.h.m.m.k.m.m.m.h.k.m.k.k.k.m.k.k.m.m.X.D.",
"$ $ - - * # X # - : = * O ] Z.h.h.A.S.k.k.k.k.m.k.k.k.k.m.m.k.k.m.k.m.k.k.b.m.r.k.k.m.k.m.k.m.k.m.m.f.0.",
"@ : : : : $ # - * * - # V Z.h.k.m.h.h.k.m.h.h.m.m.k.m.m.m.b.k.k.m.h.m.m.m.m.m.m.m.m.m.k.k.m.m.k.h.k.m.4.",
"* > : * # X + # % - * < g.m.h.k.m.k.m.k.m.m.m.m.k.m.h.m.h.m.k.m.m.m.m.h.m.h.m.h.h.k.k.m.m.k.m.m.m.b.m.h.",
"# % % % $ X # * + O X  .Z.h.m.k.m.h.k.k.h.m.h.m.m.k.m.m.k.k.m.k.m.h.k.m.h.m.h.m.n.k.k.k.k.k.m.k.k.b.h.m.",
"L L a q 1 y C 4 - , n m.k.k.m.k.m.m.m.k.k.b.m.m.k.m.h.m.k.m.h.m.k.h.m.h.m.h.m.m.k.k.m.k.k.k.k.k.k.m.h.m.",
"7.4.7...L { K u | ^ y.k.h.k.k.k.h.k.h.k.k.m.k.k.m.m.k.m.k.k.k.x.Z.k.k.Z.k.m.k.m.k.x.k.k.k.k.k.k.m.k.b.k.",
"7.+.X.' ..L V 7.O. .k.k.Z.k.x.x.Z.m.k.k.k.k.m.k.m.h.m.h.k.x.k.k.h.Z.k.k.m.h.x.k.k.k.k.k.x.k.k.x.h.m.h.m.",
"q.{ L X.X.~ 7.i.| 5.x.g.f.g.f.f.g.g.k.Z.Z.m.h.m.h.m.m.m.m.k.m.k.Z.h.m.h.h.m.x.k.Z.k.k.k.k.k.k.k.m.k.h.m.",
"~ ' 0.+.+.0.8.X. .h.k.f.5.y.5.4.2.2.2.4.y.k.m.m.h.h.h.k.k.m.h.k.k.h.k.m.k.k.k.k.k.k.k.x.k.k.x.k.k.k.h.m.",
"| ~ ~ ] c.c.t.^ f.x.h.x.k.x.x.x.k.k.g.f.2.f.k.k.k.k.k.k.k.k.m.m.h.x.k.k.k.k.k.k.k.k.k.k.x.k.k.x.k.k.h.k.",
"..| ' +.V.i.+.) k.k.k.k.k.k.h.k.k.k.k.k.k.k.k.k.k.k.k.k.m.h.y.5.f.g.h.x.x.k.k.x.k.k.k.x.k.k.k.k.m.m.h.k.",
"' u.u.v.u.u.O.5.k.k.k.k.k.k.h.k.h.k.k.k.h.k.k.k.k.k.k.k.k.k.g.f.y.3.3.5.g.x.k.k.x.k.k.x.k.x.k.k.k.k.k.k.",
"u.u.0.+.u.u.| h.k.h.k.x.x.x.k.x.k.k.k.h.k.h.h.k.k.k.k.m.m.k.m.k.x.k.g.y.4.4.g.x.B.k.k.k.k.k.k.k.k.k.k.x.",
"+...+.+.u.+.O.x.h.k.g.y.y.t.y.9.f.k.k.k.x.h.k.k.x.k.m.k.k.m.h.h.h.k.x.x.k.g.2.4.h.x.k.k.k.k.k.k.k.h.m.h.",
"' ..+.u.u.| f.k.k.h.z.(.(.'.'.R.H.a.g.x.h.f.k.k.k.k.k.k.m.k.m.m.k.k.k.k.k.k.Z.y.<.5.k.k.k.k.k.k.k.h.h.m.",
"..+.+.u.| ~ k.k.Z.w.L. X[.].l.[. X'.z.g.h.4.h.k.k.k.k.k.k.h.m.m.k.k.k.k.k.k.k.x.h.3.5.k.k.k.k.k.k.h.h.m.",
"X...X...) 3.k.h.m.e.H. X].].T.].]. X].y.f.4.k.k.m.h.k.k.k.k.g.g.x.x.k.k.k.k.k.k.x.x.g.h.h.k.k.k.m.k.k.h.",
"X.{ X...4.y.x.k.k.k.l.R..X X.X]. X XP.f.5.y.k.h.k.h.k.x.f.p.M.d.g.f.h.x.x.k.k.k.k.h.k.k.k.k.k.k.h.k.h.k.",
"+.X.' 9.4.g.k.k.k.k.h.y.L.^.'.'.(.L.y.h.2.g.x.k.h.k.k.g.z.'.[.].(.I.d.5.h.x.h.k.k.k.h.k.k.k.k.k.k.h.k.k.",
"X.+.] r. .k.k.k.k.k.h.k.w.p.j.j.y.w.x.g.2.k.h.k.k.k.k.g.I. X].].^.(.[.I.s.g.h.k.k.k.h.k.k.h.h.k.k.m.k.k.",
"+.+.X.9.2.Z.h.h.k.k.k.k.k.k.h.h.k.k.k.2.9.m.h.k.k.k.k.f.L. X].].;.E. X.X].z.w.k.k.k.k.k.k.h.h.k.h.h.h.h.",
"O.| <.y.5.Z.h.h.k.k.k.k.h.k.k.k.k.k.g. .k.h.h.k.k.k.k.h.s.].[.].[.[.].(.].'.5.x.k.k.k.h.k.h.k.h.h.h.h.h.",
"..!  .4.f.x.h.k.h.h.k.k.k.k.k.k.h.x.5.y.m.h.h.h.k.k.k.m.w.N.].[.[.[.].[. X'.t.k.h.k.k.k.k.h.k.h.k.h.k.h.",
"] L  .4.k.k.k.k.k.k.k.k.k.k.k.h.x.g.<.k.h.h.k.k.k.h.k.h.k.f.z.E.(.[.].].E.s.f.x.k.k.k.h.k.k.k.k.k.k.k.w.",
"] L ) 5.k.h.h.k.k.k.h.k.h.k.k.k.x. .9.k.k.h.k.h.k.k.k.k.k.m.h.y.p.M.M.d.9.h.k.h.k.h.k.k.k.h.k.h.k.h.m.,.",
"' L ) 8.x.k.k.k.k.k.k.h.k.x.h.h.x.<.y.k.k.k.k.k.k.h.k.k.k.x.g.y.a.z.z.k.9.g.x.h.x.h.k.k.k.h.k.k.k.h.x.,.",
"~ I Q w.k.h.h.k.k.k.k.k.k.h.k.x.f.<.k.h.g.k.h.k.h.x.x.h.k.h.x.k.h.f.h.h.x.k.h.h.h.h.h.k.h.x.k.h.k.k.h.S ",
"I ! m f.x.k.k.k.k.k.k.k.k.k.k.k. .f.x.g.h.k.k.k.k.k.h.k.h.k.h.k.k.k.x.k.k.k.k.h.x.k.h.k.k.k.k.k.h.x.1.s ",
"L L c f.x.k.h.h.k.k.g.k.k.k.x.5.E x.k.h.h.k.h.k.k.h.k.k.k.k.k.h.k.h.h.k.k.h.x.k.h.k.x.h.k.h.k.h.Z.h.k r ",
"L G E h.k.h.k.k.k.k.k.k.h.k.x.9.( k.k.k.k.x.k.h.h.x.k.h.k.h.k.h.k.h.h.x.h.k.h.k.k.k.h.k.h.k.h.x.h./ m V ",
"K N P h.h.k.k.h.h.k.h.k.k.k.k.h.5.g.f.k.k.h.k.k.k.h.k.h.k.h.k.h.k.k.k.k.h.k.x.h.k.h.x.k.k.k.h.h.5.5.h.h.",
"D N I k.h.k.h.k.k.k.k.h.h.k.k.k.k.k.k.k.k.k.k.k.k.x.h.k.k.h.k.h.k.k.h.k.k.h.x.k.h.x.h.k.h.k.k.h.h.Z.k.x.",
"D v ~ x.h.k.k.k.h.k.k.h.h.k.h.k.k.k.k.k.k.h.h.k.k.h.k.k.k.h.k.k.h.k.x.h.k.k.h.k.k.h.k.k.k.k.k.h.x.h.4. .",
"N n / x.h.x.k.k.x.h.k.h.h.k.k.k.h.k.x.k.k.h.k.k.h.x.h.h.h.h.x.h.k.k.k.h.m.h.m.h.k.k.h.k.k.x.h.x. ._ ( 9 ",
"m f / x.h.h.k.h.h.k.h.x.x.k.g.h.h.h.h.h.h.k.k.h.h.h.h.h.x.x.h.h.k.k.k.k.h.h.h.m.k.h.x.h.h.h.k.4.f 1./ g ",
"v a / x.h.h.k.k.h.k.x.5.) h.x.x.h.h.g.h.h.h.h.h.h.h.h.h.h.h.h.x.k.k.k.k.h.h.h.h.k.k.h.k.h.h._ 2.<.f.A k ",
"b c E k.h.k.h.x.k.h.x.2.  > E 5.g.k.x.k.x.x.k.k.h.x.h.h.h.x.h.h.h.h.k.k.m.h.h.h.h.k.k.h.x.[ ; 6.k.k.A S ",
"b c H h.h.h.h.k.k.h.k.k.r . 9 d S / <.5.w.x.x.x.x.h.k.k.x.h.h.h.h.k.k.k.h.m.h.h.h.h.h.h.h.m 8 5.x.h.A / ",
"v c D g.h.h.h.h.g.k.h.x.<.d / x x l k z x E ( ( >.h.k.k.h.x.x.h.h.k.k.h.h.m.m.h.m.k.h.k.h.t F k.x.1.F W ",
"v v c g.h.h.h.h.k.h.h.k.x.( s l x x x x l j s z 4.h.h.h.h.h.h.h.h.h.h.h.h.h.h.h.h.h.h.Z./ 9 9.k.g.<.~ C ",
"v m f 6.x.h.h.h.h.h.h.h.x.k.<.x z z j z x / 1.x.x.g.h.h.h.h.h.h.h.h.h.h.h.h.h.h.h.h.k.H 9 2.x.g.h.4.L ' ",
"m N c 2.Z.h.h.h.x.e.x.e.x.x.x.e.6.3.,.6.g.x.x.g.e.h.h.h.h.h.h.h.h.h.h.h.h.h.h.h.h.x.4.f w.x.g.h.h.Q W ' ",
"b N M [ x.g.h.h.x.f.f.x.x.e.e.x.h.x.x.x.x.h.f.h.h.h.h.h.h.h.h.h.h.h.h.h.h.h.h.h.h.h.5.h.h.5.h.h.~ C ' ' ",
"c b c b h.h.h.h.x.x.e.x.f.e.x.e.g.f.x.x.f.e.x.x.h.h.h.h.h.h.h.h.h.h.x.x.h.h.h.x.f.<.3.2.<.f.h.) V ~ ~ ' ",
"m c B ;.e.k.h.h.f.e.x.x.x.x.e.x.g.x.f.x.x.x.x.f.h.h.h.h.h.h.h.h.h.h.e.h.h.e.x.6.f.x.k.Z.x.5.G V ~ ~ ' +.",
"i q Y.`.3.k.h.h.x.e.x.f.h.h.h.h.x.e.f.x.x.f.x.x.h.h.h.h.x.e.x.e.h.h.h.h.h.x.6.j / 6.6._ m y v L L ! ' t.",
"K.;.|.{.s.r.h.h.x.f.e.x.x.h.h.h.e.x.x.e.x.e.x.e.h.h.h.h.h.x.e.x.x.h.h.g.x.6.s > r a 8 3 u m N K I ' | ..",
"_._.}.|.T.9.m.h.e.x.x.f.f.x.h.h.x.e.x.x.x.e.x.e.h.h.h.h.h.h.e.g.h.h.g.k.w.k 6 @.-.{.&.w N b N N L ~ ] +.",
"Y.{.{.}.{.*.r.h.x.x.e.x.e.x.h.h.f.x.f.x.e.x.f.x.h.h.h.h.h.h.x.x.h.r.k.w.A & R =.;. XT.i N b G L L ! ' X.",
"_.|.{.{.XXU.<.k.h.h.h.h.h.h.h.h.x.x.e.x.x.e.x.e.x.x.g.h.h.h.h.g.h.x.1.d 8 2 #.&.$.R._.M K D N K L ' ~ ' ",
"|.{.|.{.|.U.U h.k.g.h.h.h.h.h.x.x.e.x.e.g.x.g.x.e.h.h.h.h.g.g.x.h.>.0 9 t p $.&.$.J.|.Y v N N K ! ! ~ ..",
"{.{.{.|._.;.#.E h.h.h.h.h.h.h.h.h.h.e.x.x.e.e.x.h.h.h.e.h.x.x.3.Z 8 8 s e a $.&.%.:.|.` i N V G L ! ~ ~ ",
"|.{.{.|.J.$.=.=.o.e.x.g.g.h.h.h.h.h.h.e.g.h.h.g.g.h.h.x.h.6.J 9 8 0 k s e h $.&.&.=.`.} w N b V L L ! ~ "
};
